<svg width="2546" height="2546" viewBox="0 0 2546 2546" fill="none" xmlns="http://www.w3.org/2000/svg">
<g clip-path="url(#clip0_26999_75112)">
<circle cx="1273" cy="1273" r="1273" fill="#00A3FF"/>
<path d="M839.449 1149L828.971 1164.6C708.484 1351.79 734.677 1596.18 897.073 1752.18C986.129 1845.77 1111.86 1892.57 1237.58 1892.57C1237.58 1892.57 1237.58 1892.57 839.449 1149Z" fill="white"/>
<path d="M1236.37 1377.79L838.234 1149C1236.37 1897.77 1236.37 1897.77 1236.37 1897.77C1236.37 1736.58 1236.37 1549.39 1236.37 1377.79Z" fill="white"/>
<path d="M1705.81 1149L1716.28 1164.6C1836.77 1351.79 1810.58 1596.18 1648.18 1752.18C1553.89 1845.77 1433.4 1892.57 1307.67 1892.57C1307.67 1892.57 1307.67 1892.57 1705.81 1149Z" fill="white"/>
<path d="M1308.02 1377.79L1706.15 1149C1308.02 1897.77 1308.02 1897.77 1308.02 1897.77C1308.02 1736.58 1308.02 1549.39 1308.02 1377.79Z" fill="white"/>
<path d="M1263.99 861.265V1301.63L1654.4 1084.38L1263.99 861.265Z" fill="white"/>
<path d="M1263.99 861.265L873.578 1084.38L1263.99 1301.63V861.265Z" fill="white"/>
<path d="M1264.69 491.606L874.281 1084.63L1264.69 861.514V491.606Z" fill="white"/>
<path d="M1264.69 861.514L1655.1 1084.63L1264.69 491.606V861.514Z" fill="white"/>
<circle cx="1272.91" cy="1292.5" r="253.913" fill="#00A3FF"/>
<path fill-rule="evenodd" clip-rule="evenodd" d="M1279.62 1132.97C1274.79 1130.24 1268.88 1130.24 1264.05 1132.97L1130.88 1208.47C1123.83 1212.47 1126.67 1223.22 1134.77 1223.22H1408.9C1417 1223.22 1419.84 1212.47 1412.79 1208.47L1279.62 1132.97ZM1229.45 1350.88C1218.27 1359.76 1203.82 1365.12 1188.03 1365.12C1152.62 1365.12 1123.91 1338.19 1123.91 1304.96C1123.91 1271.74 1152.62 1244.81 1188.03 1244.81H1358.98C1394.39 1244.81 1423.1 1271.74 1423.1 1304.96C1423.1 1338.19 1394.39 1365.12 1358.98 1365.12C1343.19 1365.12 1328.74 1359.76 1317.56 1350.88C1313.25 1347.45 1308.08 1345.07 1302.58 1345.07H1244.43C1238.93 1345.07 1233.76 1347.45 1229.45 1350.88ZM1349.58 1304.79C1349.58 1310.99 1344.22 1316.02 1337.62 1316.02C1331.01 1316.02 1325.65 1310.99 1325.65 1304.79C1325.65 1298.59 1331.01 1293.56 1337.62 1293.56C1344.22 1293.56 1349.58 1298.59 1349.58 1304.79ZM1385.48 1316.02C1392.09 1316.02 1397.45 1310.99 1397.45 1304.79C1397.45 1298.59 1392.09 1293.56 1385.48 1293.56C1378.87 1293.56 1373.52 1298.59 1373.52 1304.79C1373.52 1310.99 1378.87 1316.02 1385.48 1316.02ZM1361.55 1293.56C1354.94 1293.56 1349.58 1288.54 1349.58 1282.33C1349.58 1276.13 1354.94 1271.11 1361.55 1271.11C1368.16 1271.11 1373.52 1276.13 1373.52 1282.33C1373.52 1288.54 1368.16 1293.56 1361.55 1293.56ZM1349.58 1327.25C1349.58 1333.45 1354.94 1338.48 1361.55 1338.48C1368.16 1338.48 1373.52 1333.45 1373.52 1327.25C1373.52 1321.05 1368.16 1316.02 1361.55 1316.02C1354.94 1316.02 1349.58 1321.05 1349.58 1327.25ZM1137.06 1386.42H1409.18C1414.3 1386.42 1418.46 1390.32 1418.46 1395.14C1418.46 1399.96 1414.3 1403.87 1409.18 1403.87H1137.06C1131.93 1403.87 1127.78 1399.96 1127.78 1395.14C1127.78 1390.32 1131.93 1386.42 1137.06 1386.42ZM1426.96 1415.51H1119.28C1114.15 1415.51 1110 1419.42 1110 1424.24C1110 1429.06 1114.15 1432.97 1119.28 1432.97H1426.96C1432.09 1432.97 1436.24 1429.06 1436.24 1424.24C1436.24 1419.42 1432.09 1415.51 1426.96 1415.51ZM1195.59 1328.29C1195.59 1330.06 1194.15 1331.49 1192.38 1331.49H1179.18C1177.41 1331.49 1175.97 1330.06 1175.97 1328.29V1314.33H1162.02C1160.25 1314.33 1158.81 1312.9 1158.81 1311.13V1297.92C1158.81 1296.15 1160.25 1294.71 1162.02 1294.71H1175.97V1280.75C1175.97 1278.98 1177.41 1277.55 1179.18 1277.55H1192.38C1194.15 1277.55 1195.59 1278.98 1195.59 1280.75V1294.71H1209.55C1211.32 1294.71 1212.76 1296.15 1212.76 1297.92V1311.13C1212.76 1312.9 1211.32 1314.33 1209.55 1314.33H1195.59V1328.29Z" fill="white"/>
<mask id="path-12-inside-1_26999_75112" fill="white">
<path d="M2206.74 974.702C2218.59 971.05 2231.17 977.683 2234.56 989.605C2268.35 1108.61 2279.79 1232.91 2268.22 1356.21C2255.95 1486.96 2218.05 1614.01 2156.68 1730.11C2095.31 1846.21 2011.68 1949.08 1910.55 2032.86C1815.18 2111.86 1706.03 2172.42 1588.66 2211.52C1576.9 2215.44 1564.33 2208.78 1560.68 2196.93C1557.03 2185.09 1563.68 2172.56 1575.43 2168.63C1687.17 2131.27 1791.09 2073.54 1881.92 1998.3C1978.51 1918.28 2058.39 1820.03 2117.01 1709.14C2175.62 1598.25 2211.82 1476.9 2223.54 1352.02C2234.56 1234.59 2223.73 1116.2 2191.66 1002.83C2188.29 990.909 2194.9 978.354 2206.74 974.702Z"/>
</mask>
<path d="M2206.74 974.702C2218.59 971.05 2231.17 977.683 2234.56 989.605C2268.35 1108.61 2279.79 1232.91 2268.22 1356.21C2255.95 1486.96 2218.05 1614.01 2156.68 1730.11C2095.31 1846.21 2011.68 1949.08 1910.55 2032.86C1815.18 2111.86 1706.03 2172.42 1588.66 2211.52C1576.9 2215.44 1564.33 2208.78 1560.68 2196.93C1557.03 2185.09 1563.68 2172.56 1575.43 2168.63C1687.17 2131.27 1791.09 2073.54 1881.92 1998.3C1978.51 1918.28 2058.39 1820.03 2117.01 1709.14C2175.62 1598.25 2211.82 1476.9 2223.54 1352.02C2234.56 1234.59 2223.73 1116.2 2191.66 1002.83C2188.29 990.909 2194.9 978.354 2206.74 974.702Z" stroke="white" stroke-width="80" mask="url(#path-12-inside-1_26999_75112)"/>
<mask id="path-13-inside-2_26999_75112" fill="white">
<path d="M666.812 496.766C659.124 487.046 660.756 472.912 670.646 465.443C846.153 332.907 1060.67 261.795 1281.01 263.5C1501.35 265.205 1714.73 339.628 1888.17 474.865C1897.94 482.485 1899.36 496.643 1891.52 506.243C1883.68 515.842 1869.56 517.247 1859.78 509.637C1694.27 380.862 1490.77 310.003 1280.66 308.377C1070.54 306.751 865.977 374.452 698.496 500.651C688.598 508.109 674.5 506.485 666.812 496.766Z"/>
</mask>
<path d="M666.812 496.766C659.124 487.046 660.756 472.912 670.646 465.443C846.153 332.907 1060.67 261.795 1281.01 263.5C1501.35 265.205 1714.73 339.628 1888.17 474.865C1897.94 482.485 1899.36 496.643 1891.52 506.243C1883.68 515.842 1869.56 517.247 1859.78 509.637C1694.27 380.862 1490.77 310.003 1280.66 308.377C1070.54 306.751 865.977 374.452 698.496 500.651C688.598 508.109 674.5 506.485 666.812 496.766Z" stroke="white" stroke-width="80" mask="url(#path-13-inside-2_26999_75112)"/>
<mask id="path-14-inside-3_26999_75112" fill="white">
<path d="M994.927 2200.57C991.398 2212.45 978.898 2219.25 967.1 2215.45C847.205 2176.9 735.606 2116.01 638.214 2035.95C535.042 1951.13 449.905 1846.51 387.829 1728.25C325.753 1609.99 287.996 1480.49 276.786 1347.4C266.205 1221.77 279.481 1095.34 315.842 974.762C319.42 962.897 332.112 956.468 343.894 960.311C355.676 964.154 362.085 976.814 358.519 988.683C324.009 1103.56 311.428 1223.98 321.507 1343.64C332.213 1470.75 368.276 1594.44 427.566 1707.39C486.856 1820.34 568.172 1920.27 666.714 2001.28C759.475 2077.54 865.731 2135.58 979.882 2172.42C991.676 2176.23 998.455 2188.69 994.927 2200.57Z"/>
</mask>
<path d="M994.927 2200.57C991.398 2212.45 978.898 2219.25 967.1 2215.45C847.205 2176.9 735.606 2116.01 638.214 2035.95C535.042 1951.13 449.905 1846.51 387.829 1728.25C325.753 1609.99 287.996 1480.49 276.786 1347.4C266.205 1221.77 279.481 1095.34 315.842 974.762C319.42 962.897 332.112 956.468 343.894 960.311C355.676 964.154 362.085 976.814 358.519 988.683C324.009 1103.56 311.428 1223.98 321.507 1343.64C332.213 1470.75 368.276 1594.44 427.566 1707.39C486.856 1820.34 568.172 1920.27 666.714 2001.28C759.475 2077.54 865.731 2135.58 979.882 2172.42C991.676 2176.23 998.455 2188.69 994.927 2200.57Z" stroke="white" stroke-width="80" mask="url(#path-14-inside-3_26999_75112)"/>
<circle cx="2046.74" cy="728.139" r="190" fill="#00A3FF" stroke="white" stroke-width="40"/>
<mask id="path-16-outside-4_26999_75112" maskUnits="userSpaceOnUse" x="1941.86" y="663.845" width="211" height="144" fill="black">
<rect fill="white" x="1941.86" y="663.845" width="211" height="144"/>
<path d="M2031.44 785.845V805.845H1943.44V759.645L2011.44 721.445V701.845C2011.44 692.845 2004.44 685.845 1995.44 685.845H1979.44C1970.64 685.845 1963.44 693.045 1963.44 701.845V708.845H1943.44V701.845C1943.44 681.845 1959.64 665.845 1979.44 665.845H1995.44C2015.44 665.845 2031.44 681.845 2031.44 701.845V733.245L1963.44 771.445V785.845H2031.44ZM2115.36 785.645C2118.76 785.645 2121.76 784.645 2124.36 782.845L2083.36 716.045V769.645C2083.36 778.445 2090.56 785.645 2099.36 785.645H2115.36ZM2063.36 769.645V701.845C2063.36 681.845 2079.56 665.845 2099.36 665.845H2115.36C2135.36 665.845 2151.36 681.845 2151.36 701.845V769.645C2151.36 789.445 2135.36 805.845 2115.36 805.845H2099.36C2079.56 805.845 2063.36 789.445 2063.36 769.645ZM2090.16 688.645L2131.36 755.645V701.845C2131.36 692.845 2124.36 685.845 2115.36 685.845H2099.36C2095.96 685.845 2092.76 686.845 2090.16 688.645Z"/>
</mask>
<path d="M2031.44 785.845V805.845H1943.44V759.645L2011.44 721.445V701.845C2011.44 692.845 2004.44 685.845 1995.44 685.845H1979.44C1970.64 685.845 1963.44 693.045 1963.44 701.845V708.845H1943.44V701.845C1943.44 681.845 1959.64 665.845 1979.44 665.845H1995.44C2015.44 665.845 2031.44 681.845 2031.44 701.845V733.245L1963.44 771.445V785.845H2031.44ZM2115.36 785.645C2118.76 785.645 2121.76 784.645 2124.36 782.845L2083.36 716.045V769.645C2083.36 778.445 2090.56 785.645 2099.36 785.645H2115.36ZM2063.36 769.645V701.845C2063.36 681.845 2079.56 665.845 2099.36 665.845H2115.36C2135.36 665.845 2151.36 681.845 2151.36 701.845V769.645C2151.36 789.445 2135.36 805.845 2115.36 805.845H2099.36C2079.56 805.845 2063.36 789.445 2063.36 769.645ZM2090.16 688.645L2131.36 755.645V701.845C2131.36 692.845 2124.36 685.845 2115.36 685.845H2099.36C2095.96 685.845 2092.76 686.845 2090.16 688.645Z" fill="white"/>
<path d="M2031.44 785.845H2032.89V784.392H2031.44V785.845ZM2031.44 805.845V807.297H2032.89V805.845H2031.44ZM1943.44 805.845H1941.98V807.297H1943.44V805.845ZM1943.44 759.645L1942.73 758.378L1941.98 758.795V759.645H1943.44ZM2011.44 721.445L2012.15 722.711L2012.89 722.295V721.445H2011.44ZM1963.44 708.845V710.297H1964.89V708.845H1963.44ZM1943.44 708.845H1941.98V710.297H1943.44V708.845ZM2031.44 733.245L2032.15 734.511L2032.89 734.095V733.245H2031.44ZM1963.44 771.445L1962.73 770.178L1961.99 770.595V771.445H1963.44ZM1963.44 785.845H1961.99V787.297H1963.44V785.845ZM2029.99 785.845V805.845H2032.89V785.845H2029.99ZM2031.44 804.392H1943.44V807.297H2031.44V804.392ZM1944.89 805.845V759.645H1941.98V805.845H1944.89ZM1944.15 760.911L2012.15 722.711L2010.73 720.178L1942.73 758.378L1944.15 760.911ZM2012.89 721.445V701.845H2009.99V721.445H2012.89ZM2012.89 701.845C2012.89 692.043 2005.24 684.392 1995.44 684.392V687.297C2003.64 687.297 2009.99 693.647 2009.99 701.845H2012.89ZM1995.44 684.392H1979.44V687.297H1995.44V684.392ZM1979.44 684.392C1969.84 684.392 1961.99 692.243 1961.99 701.845H1964.89C1964.89 693.847 1971.44 687.297 1979.44 687.297V684.392ZM1961.99 701.845V708.845H1964.89V701.845H1961.99ZM1963.44 707.392H1943.44V710.297H1963.44V707.392ZM1944.89 708.845V701.845H1941.98V708.845H1944.89ZM1944.89 701.845C1944.89 682.652 1960.43 667.297 1979.44 667.297V664.392C1958.84 664.392 1941.98 681.037 1941.98 701.845H1944.89ZM1979.44 667.297H1995.44V664.392H1979.44V667.297ZM1995.44 667.297C2014.64 667.297 2029.99 682.647 2029.99 701.845H2032.89C2032.89 681.043 2016.24 664.392 1995.44 664.392V667.297ZM2029.99 701.845V733.245H2032.89V701.845H2029.99ZM2030.73 731.978L1962.73 770.178L1964.15 772.711L2032.15 734.511L2030.73 731.978ZM1961.99 771.445V785.845H1964.89V771.445H1961.99ZM1963.44 787.297H2031.44V784.392H1963.44V787.297ZM2124.36 782.845L2125.19 784.039L2126.32 783.257L2125.6 782.085L2124.36 782.845ZM2083.36 716.045L2084.6 715.285L2081.91 710.901V716.045H2083.36ZM2090.16 688.645L2089.33 687.45L2088.2 688.234L2088.92 689.406L2090.16 688.645ZM2131.36 755.645L2130.12 756.406L2132.81 760.78V755.645H2131.36ZM2115.36 787.097C2119.06 787.097 2122.35 786.003 2125.19 784.039L2123.53 781.65C2121.17 783.287 2118.46 784.192 2115.36 784.192V787.097ZM2125.6 782.085L2084.6 715.285L2082.12 716.805L2123.12 783.605L2125.6 782.085ZM2081.91 716.045V769.645H2084.81V716.045H2081.91ZM2081.91 769.645C2081.91 779.247 2089.76 787.097 2099.36 787.097V784.192C2091.36 784.192 2084.81 777.643 2084.81 769.645H2081.91ZM2099.36 787.097H2115.36V784.192H2099.36V787.097ZM2064.81 769.645V701.845H2061.91V769.645H2064.81ZM2064.81 701.845C2064.81 682.652 2080.36 667.297 2099.36 667.297V664.392C2078.76 664.392 2061.91 681.037 2061.91 701.845H2064.81ZM2099.36 667.297H2115.36V664.392H2099.36V667.297ZM2115.36 667.297C2134.56 667.297 2149.91 682.647 2149.91 701.845H2152.81C2152.81 681.043 2136.16 664.392 2115.36 664.392V667.297ZM2149.91 701.845V769.645H2152.81V701.845H2149.91ZM2149.91 769.645C2149.91 788.658 2134.54 804.392 2115.36 804.392V807.297C2136.18 807.297 2152.81 790.231 2152.81 769.645H2149.91ZM2115.36 804.392H2099.36V807.297H2115.36V804.392ZM2099.36 804.392C2080.37 804.392 2064.81 788.653 2064.81 769.645H2061.91C2061.91 790.236 2078.75 807.297 2099.36 807.297V804.392ZM2088.92 689.406L2130.12 756.406L2132.6 754.884L2091.4 687.884L2088.92 689.406ZM2132.81 755.645V701.845H2129.91V755.645H2132.81ZM2132.81 701.845C2132.81 692.043 2125.16 684.392 2115.36 684.392V687.297C2123.56 687.297 2129.91 693.647 2129.91 701.845H2132.81ZM2115.36 684.392H2099.36V687.297H2115.36V684.392ZM2099.36 684.392C2095.68 684.392 2092.18 685.476 2089.33 687.45L2090.99 689.839C2093.33 688.213 2096.24 687.297 2099.36 687.297V684.392Z" fill="white" mask="url(#path-16-outside-4_26999_75112)"/>
<circle cx="1276.49" cy="2247.24" r="202.967" fill="#00A3FF" stroke="white" stroke-width="40"/>
<mask id="path-19-outside-5_26999_75112" maskUnits="userSpaceOnUse" x="1170.92" y="2182.1" width="216" height="144" fill="black">
<rect fill="white" x="1170.92" y="2182.1" width="216" height="144"/>
<path d="M1193.23 2288.1C1193.23 2296.9 1200.43 2304.1 1209.23 2304.1H1225.23C1234.23 2304.1 1241.23 2297.1 1241.23 2288.1V2271.3C1241.23 2262.5 1234.03 2255.3 1225.23 2255.3H1216.03L1193.23 2270.7V2288.1ZM1173.23 2288.1V2220.1C1173.23 2200.1 1189.23 2184.1 1209.23 2184.1H1225.23C1245.23 2184.1 1261.23 2200.1 1261.23 2220.1V2226.1H1241.23V2220.1C1241.23 2211.1 1234.23 2204.1 1225.23 2204.1H1209.23C1200.23 2204.1 1193.23 2211.1 1193.23 2220.1V2246.5L1209.83 2235.3H1225.23C1245.03 2235.3 1261.23 2251.3 1261.23 2271.3V2288.1C1261.23 2308.1 1245.23 2324.1 1225.23 2324.1H1209.23C1189.43 2324.1 1173.23 2308.1 1173.23 2288.1ZM1289.15 2222.1H1309.15V2233.7L1321.15 2222.1H1322.75C1333.35 2222.1 1340.75 2226.7 1344.55 2236.3L1359.15 2222.1H1360.75C1376.55 2222.1 1385.15 2232.1 1385.15 2254.1V2324.1H1365.15V2254.1C1365.15 2250.3 1365.15 2247.1 1364.75 2244.9L1347.15 2261.7V2324.1H1327.15V2254.1C1327.15 2250.3 1327.15 2247.1 1326.75 2244.9L1309.15 2261.7V2324.1H1289.15V2222.1ZM1320.55 2238.9H1321.75H1320.55ZM1358.55 2238.9H1359.75H1358.55Z"/>
</mask>
<path d="M1193.23 2288.1C1193.23 2296.9 1200.43 2304.1 1209.23 2304.1H1225.23C1234.23 2304.1 1241.23 2297.1 1241.23 2288.1V2271.3C1241.23 2262.5 1234.03 2255.3 1225.23 2255.3H1216.03L1193.23 2270.7V2288.1ZM1173.23 2288.1V2220.1C1173.23 2200.1 1189.23 2184.1 1209.23 2184.1H1225.23C1245.23 2184.1 1261.23 2200.1 1261.23 2220.1V2226.1H1241.23V2220.1C1241.23 2211.1 1234.23 2204.1 1225.23 2204.1H1209.23C1200.23 2204.1 1193.23 2211.1 1193.23 2220.1V2246.5L1209.83 2235.3H1225.23C1245.03 2235.3 1261.23 2251.3 1261.23 2271.3V2288.1C1261.23 2308.1 1245.23 2324.1 1225.23 2324.1H1209.23C1189.43 2324.1 1173.23 2308.1 1173.23 2288.1ZM1289.15 2222.1H1309.15V2233.7L1321.15 2222.1H1322.75C1333.35 2222.1 1340.75 2226.7 1344.55 2236.3L1359.15 2222.1H1360.75C1376.55 2222.1 1385.15 2232.1 1385.15 2254.1V2324.1H1365.15V2254.1C1365.15 2250.3 1365.15 2247.1 1364.75 2244.9L1347.15 2261.7V2324.1H1327.15V2254.1C1327.15 2250.3 1327.15 2247.1 1326.75 2244.9L1309.15 2261.7V2324.1H1289.15V2222.1ZM1320.55 2238.9H1321.75H1320.55ZM1358.55 2238.9H1359.75H1358.55Z" fill="white"/>
<path d="M1216.03 2255.3V2253.85H1215.58L1215.21 2254.09L1216.03 2255.3ZM1193.23 2270.7L1192.41 2269.49L1191.77 2269.93V2270.7H1193.23ZM1261.23 2226.1V2227.55H1262.68V2226.1H1261.23ZM1241.23 2226.1H1239.77V2227.55H1241.23V2226.1ZM1193.23 2246.5H1191.77V2249.23L1194.04 2247.7L1193.23 2246.5ZM1209.83 2235.3V2233.85H1209.38L1209.01 2234.09L1209.83 2235.3ZM1191.77 2288.1C1191.77 2297.7 1199.62 2305.55 1209.23 2305.55V2302.65C1201.23 2302.65 1194.68 2296.1 1194.68 2288.1H1191.77ZM1209.23 2305.55H1225.23V2302.65H1209.23V2305.55ZM1225.23 2305.55C1235.03 2305.55 1242.68 2297.9 1242.68 2288.1H1239.77C1239.77 2296.3 1233.42 2302.65 1225.23 2302.65V2305.55ZM1242.68 2288.1V2271.3H1239.77V2288.1H1242.68ZM1242.68 2271.3C1242.68 2261.7 1234.83 2253.85 1225.23 2253.85V2256.75C1233.22 2256.75 1239.77 2263.3 1239.77 2271.3H1242.68ZM1225.23 2253.85H1216.03V2256.75H1225.23V2253.85ZM1215.21 2254.09L1192.41 2269.49L1194.04 2271.9L1216.84 2256.5L1215.21 2254.09ZM1191.77 2270.7V2288.1H1194.68V2270.7H1191.77ZM1174.68 2288.1V2220.1H1171.77V2288.1H1174.68ZM1174.68 2220.1C1174.68 2200.9 1190.03 2185.55 1209.23 2185.55V2182.65C1188.42 2182.65 1171.77 2199.3 1171.77 2220.1H1174.68ZM1209.23 2185.55H1225.23V2182.65H1209.23V2185.55ZM1225.23 2185.55C1244.42 2185.55 1259.77 2200.9 1259.77 2220.1H1262.68C1262.68 2199.3 1246.03 2182.65 1225.23 2182.65V2185.55ZM1259.77 2220.1V2226.1H1262.68V2220.1H1259.77ZM1261.23 2224.65H1241.23V2227.55H1261.23V2224.65ZM1242.68 2226.1V2220.1H1239.77V2226.1H1242.68ZM1242.68 2220.1C1242.68 2210.3 1235.03 2202.65 1225.23 2202.65V2205.55C1233.42 2205.55 1239.77 2211.9 1239.77 2220.1H1242.68ZM1225.23 2202.65H1209.23V2205.55H1225.23V2202.65ZM1209.23 2202.65C1199.42 2202.65 1191.77 2210.3 1191.77 2220.1H1194.68C1194.68 2211.9 1201.03 2205.55 1209.23 2205.55V2202.65ZM1191.77 2220.1V2246.5H1194.68V2220.1H1191.77ZM1194.04 2247.7L1210.64 2236.5L1209.01 2234.09L1192.41 2245.29L1194.04 2247.7ZM1209.83 2236.75H1225.23V2233.85H1209.83V2236.75ZM1225.23 2236.75C1244.23 2236.75 1259.77 2252.11 1259.77 2271.3H1262.68C1262.68 2250.49 1245.82 2233.85 1225.23 2233.85V2236.75ZM1259.77 2271.3V2288.1H1262.68V2271.3H1259.77ZM1259.77 2288.1C1259.77 2307.3 1244.42 2322.65 1225.23 2322.65V2325.55C1246.03 2325.55 1262.68 2308.9 1262.68 2288.1H1259.77ZM1225.23 2322.65H1209.23V2325.55H1225.23V2322.65ZM1209.23 2322.65C1190.22 2322.65 1174.68 2307.29 1174.68 2288.1H1171.77C1171.77 2308.91 1188.63 2325.55 1209.23 2325.55V2322.65ZM1289.15 2222.1V2220.65H1287.69V2222.1H1289.15ZM1309.15 2222.1H1310.6V2220.65H1309.15V2222.1ZM1309.15 2233.7H1307.69V2237.12L1310.16 2234.74L1309.15 2233.7ZM1321.15 2222.1V2220.65H1320.56L1320.14 2221.05L1321.15 2222.1ZM1344.55 2236.3L1343.2 2236.83L1344 2238.86L1345.56 2237.34L1344.55 2236.3ZM1359.15 2222.1V2220.65H1358.56L1358.13 2221.06L1359.15 2222.1ZM1385.15 2324.1V2325.55H1386.6V2324.1H1385.15ZM1365.15 2324.1H1363.69V2325.55H1365.15V2324.1ZM1364.75 2244.9L1366.18 2244.64L1365.69 2241.99L1363.74 2243.85L1364.75 2244.9ZM1347.15 2261.7L1346.14 2260.65L1345.69 2261.08V2261.7H1347.15ZM1347.15 2324.1V2325.55H1348.6V2324.1H1347.15ZM1327.15 2324.1H1325.69V2325.55H1327.15V2324.1ZM1326.75 2244.9L1328.18 2244.64L1327.69 2241.99L1325.74 2243.85L1326.75 2244.9ZM1309.15 2261.7L1308.14 2260.65L1307.69 2261.08V2261.7H1309.15ZM1309.15 2324.1V2325.55H1310.6V2324.1H1309.15ZM1289.15 2324.1H1287.69V2325.55H1289.15V2324.1ZM1289.15 2223.55H1309.15V2220.65H1289.15V2223.55ZM1307.69 2222.1V2233.7H1310.6V2222.1H1307.69ZM1310.16 2234.74L1322.16 2223.14L1320.14 2221.05L1308.14 2232.65L1310.16 2234.74ZM1321.15 2223.55H1322.75V2220.65H1321.15V2223.55ZM1322.75 2223.55C1327.84 2223.55 1332.05 2224.65 1335.41 2226.82C1338.77 2228.98 1341.39 2232.27 1343.2 2236.83L1345.9 2235.76C1343.9 2230.73 1340.93 2226.92 1336.98 2224.38C1333.05 2221.84 1328.26 2220.65 1322.75 2220.65V2223.55ZM1345.56 2237.34L1360.16 2223.14L1358.13 2221.06L1343.53 2235.26L1345.56 2237.34ZM1359.15 2223.55H1360.75V2220.65H1359.15V2223.55ZM1360.75 2223.55C1368.32 2223.55 1373.95 2225.93 1377.73 2230.75C1381.57 2235.63 1383.69 2243.25 1383.69 2254.1H1386.6C1386.6 2242.95 1384.43 2234.57 1380.01 2228.95C1375.55 2223.27 1368.97 2220.65 1360.75 2220.65V2223.55ZM1383.69 2254.1V2324.1H1386.6V2254.1H1383.69ZM1385.15 2322.65H1365.15V2325.55H1385.15V2322.65ZM1366.6 2324.1V2254.1H1363.69V2324.1H1366.6ZM1366.6 2254.1C1366.6 2250.36 1366.61 2247 1366.18 2244.64L1363.32 2245.16C1363.69 2247.2 1363.69 2250.24 1363.69 2254.1H1366.6ZM1363.74 2243.85L1346.14 2260.65L1348.15 2262.75L1365.75 2245.95L1363.74 2243.85ZM1345.69 2261.7V2324.1H1348.6V2261.7H1345.69ZM1347.15 2322.65H1327.15V2325.55H1347.15V2322.65ZM1328.6 2324.1V2254.1H1325.69V2324.1H1328.6ZM1328.6 2254.1C1328.6 2250.36 1328.61 2247 1328.18 2244.64L1325.32 2245.16C1325.69 2247.2 1325.69 2250.24 1325.69 2254.1H1328.6ZM1325.74 2243.85L1308.14 2260.65L1310.15 2262.75L1327.75 2245.95L1325.74 2243.85ZM1307.69 2261.7V2324.1H1310.6V2261.7H1307.69ZM1309.15 2322.65H1289.15V2325.55H1309.15V2322.65ZM1290.6 2324.1V2222.1H1287.69V2324.1H1290.6ZM1320.55 2240.35H1321.75V2237.45H1320.55V2240.35ZM1321.75 2237.45H1320.55V2240.35H1321.75V2237.45ZM1358.55 2240.35H1359.75V2237.45H1358.55V2240.35ZM1359.75 2237.45H1358.55V2240.35H1359.75V2237.45Z" fill="white" mask="url(#path-19-outside-5_26999_75112)"/>
<circle cx="492.487" cy="705.359" r="202.967" fill="#00A3FF" stroke="white" stroke-width="40"/>
<path d="M528.82 666.382C528.82 660.996 533.186 656.629 538.573 656.629H571.298C580.037 656.629 587.78 657.883 594.528 660.391C601.386 662.899 606.751 666.615 610.623 671.538C614.605 676.46 616.597 682.359 616.597 689.232C616.597 696.199 614.605 702.143 610.623 707.066C606.751 711.896 601.386 715.565 594.528 718.073C587.78 720.581 580.037 721.835 571.298 721.835H567.942C562.556 721.835 558.189 726.202 558.189 731.588V744.406C558.189 749.793 553.823 754.159 548.436 754.159H538.573C533.186 754.159 528.82 749.793 528.82 744.406V666.382ZM571.298 700.378C575.944 700.378 579.76 699.45 582.747 697.592C585.844 695.641 587.393 692.855 587.393 689.232C587.393 685.61 585.844 682.87 582.747 681.012C579.76 679.061 575.944 678.086 571.298 678.086H567.942C562.556 678.086 558.189 682.453 558.189 687.839V690.625C558.189 696.012 562.556 700.378 567.942 700.378H571.298Z" fill="white"/>
<path fill-rule="evenodd" clip-rule="evenodd" d="M582.747 681.012C585.844 682.87 587.393 685.61 587.393 689.232C587.393 692.855 585.844 695.641 582.747 697.592C579.76 699.45 575.944 700.378 571.298 700.378H567.942C562.556 700.378 558.189 696.012 558.189 690.625V687.839C558.189 682.453 562.556 678.086 567.942 678.086H571.298C575.944 678.086 579.76 679.061 582.747 681.012ZM538.573 642H571.298C581.402 642 590.913 643.446 599.589 646.665C608.522 649.938 616.261 655.074 622.061 662.416C628.291 670.155 631.226 679.349 631.226 689.232C631.226 699.18 628.306 708.455 622.017 716.242C616.205 723.482 608.475 728.544 599.588 731.799C591.349 734.856 582.357 736.314 572.819 736.453V744.406C572.819 757.872 561.902 768.788 548.436 768.788H538.573C525.107 768.788 514.19 757.872 514.19 744.406V666.382C514.19 652.916 525.107 642 538.573 642ZM594.528 718.073C601.386 715.565 606.751 711.896 610.623 707.066C614.605 702.143 616.597 696.199 616.597 689.232C616.597 682.359 614.605 676.46 610.623 671.538C606.751 666.615 601.386 662.899 594.528 660.391C587.78 657.883 580.037 656.629 571.298 656.629H538.573C533.186 656.629 528.82 660.996 528.82 666.382V744.406C528.82 749.793 533.186 754.159 538.573 754.159H548.436C553.823 754.159 558.189 749.793 558.189 744.406V731.588C558.189 726.202 562.556 721.835 567.942 721.835H571.298C580.037 721.835 587.78 720.581 594.528 718.073Z" fill="white"/>
<path d="M367.115 669.368C365.091 663.072 369.787 656.629 376.4 656.629H383.885C388.169 656.629 391.951 659.425 393.208 663.521L400.211 686.334C403.011 695.457 415.893 695.545 418.818 686.462L426.247 663.393C427.545 659.362 431.296 656.629 435.53 656.629H446.693C450.934 656.629 454.688 659.369 455.982 663.408L463.338 686.378C466.247 695.459 479.117 695.4 481.942 686.293L489.014 663.493C490.28 659.411 494.055 656.629 498.329 656.629H505.686C512.3 656.629 516.995 663.072 514.971 669.368L489.884 747.391C488.587 751.424 484.836 754.159 480.599 754.159H466.894C462.657 754.159 458.905 751.423 457.609 747.389L450.403 724.961C447.503 715.935 434.732 715.935 431.832 724.961L424.627 747.389C423.331 751.423 419.578 754.159 415.341 754.159H401.487C397.251 754.159 393.499 751.424 392.202 747.391L367.115 669.368Z" fill="white"/>
<path fill-rule="evenodd" clip-rule="evenodd" d="M376.4 642H383.885C394.595 642 404.051 648.989 407.194 659.228L409.646 667.217L412.322 658.908C415.567 648.831 424.944 642 435.53 642H446.693C457.294 642 466.681 648.85 469.914 658.946L472.552 667.183L475.041 659.159C478.206 648.955 487.645 642 498.329 642H505.686C522.22 642 533.959 658.106 528.898 673.846L503.811 751.869C500.57 761.952 491.19 768.788 480.599 768.788H466.894C456.302 768.788 446.921 761.949 443.681 751.864L441.118 743.887L438.555 751.864C435.315 761.949 425.934 768.788 415.341 768.788H401.487C390.896 768.788 381.517 761.952 378.275 751.869L353.188 673.846C348.127 658.106 359.867 642 376.4 642ZM376.4 656.629C369.787 656.629 365.091 663.072 367.115 669.368L392.202 747.391C393.499 751.424 397.251 754.159 401.487 754.159H415.341C419.578 754.159 423.331 751.423 424.627 747.389L431.832 724.961C434.732 715.935 447.503 715.935 450.403 724.961L457.609 747.389C458.905 751.423 462.657 754.159 466.894 754.159H480.599C484.836 754.159 488.587 751.424 489.884 747.391L514.971 669.368C516.995 663.072 512.3 656.629 505.686 656.629H498.329C494.055 656.629 490.28 659.411 489.014 663.493L481.942 686.293C479.117 695.4 466.247 695.459 463.338 686.378L455.982 663.408C454.688 659.369 450.934 656.629 446.693 656.629H435.53C431.296 656.629 427.545 659.362 426.247 663.393L418.818 686.462C415.893 695.545 403.011 695.457 400.211 686.334L393.208 663.521C391.951 659.425 388.169 656.629 383.885 656.629H376.4Z" fill="white"/>
<path d="M530.77 661.505H570.888C579.141 661.505 586.454 662.633 592.827 664.891C599.305 667.148 604.371 670.492 608.028 674.922C611.789 679.353 613.67 684.661 613.67 690.847C613.67 697.117 611.789 702.467 608.028 706.898C604.371 711.245 599.305 714.547 592.827 716.804C586.454 719.061 579.141 720.19 570.888 720.19H558.507V749.282H530.77V661.505ZM570.888 700.879C575.275 700.879 578.88 700.043 581.701 698.371C584.626 696.616 586.089 694.108 586.089 690.847C586.089 687.587 584.626 685.121 581.701 683.449C578.88 681.694 575.275 680.816 570.888 680.816H558.507V700.879H570.888Z" fill="#00A3FF"/>
<path d="M367.891 661.505H394.21L411.289 714.923L429.208 661.505H453.007L470.787 714.798L488.006 661.505H514.185L484.786 749.282H458.607L441.108 696.992L423.609 749.282H397.29L367.891 661.505Z" fill="#00A3FF"/>
</g>
<defs>
<clipPath id="clip0_26999_75112">
<rect width="2546" height="2546" fill="white"/>
</clipPath>
</defs>
</svg>
