<?xml version="1.0" encoding="UTF-8"?>
<svg version="1.1" xmlns="http://www.w3.org/2000/svg" width="719" height="720">
<path d="M0 0 C237.27 0 474.54 0 719 0 C719 237.6 719 475.2 719 720 C481.73 720 244.46 720 0 720 C0 482.4 0 244.8 0 0 Z " fill="#FBFC02" transform="translate(0,0)"/>
<path d="M0 0 C7.26 0 14.52 0 22 0 C22 89.1 22 178.2 22 270 C14.74 270 7.48 270 0 270 C0 292.11 0 314.22 0 337 C-7.59 337 -15.18 337 -23 337 C-23 344.59 -23 352.18 -23 360 C-30.26 360 -37.52 360 -45 360 C-45 367.26 -45 374.52 -45 382 C-30.15 382 -15.3 382 0 382 C0 389.59 0 397.18 0 405 C7.26 405 14.52 405 22 405 C22 412.26 22 419.52 22 427 C29.92 427 37.84 427 46 427 C46 449.44 46 471.88 46 495 C-125.27 495 -296.54 495 -473 495 C-473 480.15 -473 465.3 -473 450 C-465.41 450 -457.82 450 -450 450 C-450 442.41 -450 434.82 -450 427 C-442.74 427 -435.48 427 -428 427 C-428 419.74 -428 412.48 -428 405 C-420.41 405 -412.82 405 -405 405 C-405 397.41 -405 389.82 -405 382 C-390.15 382 -375.3 382 -360 382 C-360 359.89 -360 337.78 -360 315 C-345.15 315 -330.3 315 -315 315 C-315 278.04 -315 241.08 -315 203 C-307.74 203 -300.48 203 -293 203 C-293 195.41 -293 187.82 -293 180 C-285.41 180 -277.82 180 -270 180 C-270 172.74 -270 165.48 -270 158 C-262.74 158 -255.48 158 -248 158 C-248 172.52 -248 187.04 -248 202 C-240.41 202 -232.82 202 -225 202 C-225 209.59 -225 217.18 -225 225 C-217.74 225 -210.48 225 -203 225 C-203 239.85 -203 254.7 -203 270 C-195.41 270 -187.82 270 -180 270 C-180 262.41 -180 254.82 -180 247 C-172.74 247 -165.48 247 -158 247 C-158 239.74 -158 232.48 -158 225 C-120.71 225 -83.42 225 -45 225 C-45 232.26 -45 239.52 -45 247 C-30.15 247 -15.3 247 0 247 C0 202.45 0 157.9 0 112 C-7.59 112 -15.18 112 -23 112 C-23 119.59 -23 127.18 -23 135 C-30.26 135 -37.52 135 -45 135 C-45 127.41 -45 119.82 -45 112 C-52.59 112 -60.18 112 -68 112 C-68 104.74 -68 97.48 -68 90 C-45.56 90 -23.12 90 0 90 C0 60.3 0 30.6 0 0 Z " fill="#34454C" transform="translate(562,225)"/>
<path d="M0 0 C66.66 0 133.32 0 202 0 C202 7.26 202 14.52 202 22 C209.59 22 217.18 22 225 22 C225 29.26 225 36.52 225 44 C232.26 44 239.52 44 247 44 C247 51.59 247 59.18 247 67 C254.59 67 262.18 67 270 67 C270 96.7 270 126.4 270 157 C247.56 157 225.12 157 202 157 C202 164.26 202 171.52 202 179 C209.59 179 217.18 179 225 179 C225 186.59 225 194.18 225 202 C232.26 202 239.52 202 247 202 C247 194.41 247 186.82 247 179 C254.59 179 262.18 179 270 179 C270 223.55 270 268.1 270 314 C255.15 314 240.3 314 225 314 C225 306.74 225 299.48 225 292 C187.71 292 150.42 292 112 292 C112 299.26 112 306.52 112 314 C104.74 314 97.48 314 90 314 C90 321.59 90 329.18 90 337 C82.41 337 74.82 337 67 337 C67 322.15 67 307.3 67 292 C59.74 292 52.48 292 45 292 C45 284.41 45 276.82 45 269 C37.41 269 29.82 269 22 269 C22 254.48 22 239.96 22 225 C14.74 225 7.48 225 0 225 C0 232.26 0 239.52 0 247 C-7.59 247 -15.18 247 -23 247 C-23 254.59 -23 262.18 -23 270 C-30.26 270 -37.52 270 -45 270 C-45 262.41 -45 254.82 -45 247 C-52.59 247 -60.18 247 -68 247 C-68 217.3 -68 187.6 -68 157 C-60.41 157 -52.82 157 -45 157 C-45 127.3 -45 97.6 -45 67 C-37.74 67 -30.48 67 -23 67 C-23 59.74 -23 52.48 -23 45 C-15.41 45 -7.82 45 0 45 C0 30.15 0 15.3 0 0 Z " fill="#FDD8C1" transform="translate(292,158)"/>
<path d="M0 0 C7.26 0 14.52 0 22 0 C22 89.1 22 178.2 22 270 C14.74 270 7.48 270 0 270 C0 292.11 0 314.22 0 337 C-7.59 337 -15.18 337 -23 337 C-23 344.59 -23 352.18 -23 360 C-30.26 360 -37.52 360 -45 360 C-45 374.85 -45 389.7 -45 405 C-82.29 405 -119.58 405 -158 405 C-158 397.41 -158 389.82 -158 382 C-165.26 382 -172.52 382 -180 382 C-180 374.74 -180 367.48 -180 360 C-187.59 360 -195.18 360 -203 360 C-203 352.41 -203 344.82 -203 337 C-210.26 337 -217.52 337 -225 337 C-225 329.74 -225 322.48 -225 315 C-232.59 315 -240.18 315 -248 315 C-248 307.41 -248 299.82 -248 292 C-255.26 292 -262.52 292 -270 292 C-270 277.15 -270 262.3 -270 247 C-277.59 247 -285.18 247 -293 247 C-293 269.44 -293 291.88 -293 315 C-300.26 315 -307.52 315 -315 315 C-315 278.04 -315 241.08 -315 203 C-307.74 203 -300.48 203 -293 203 C-293 195.41 -293 187.82 -293 180 C-285.41 180 -277.82 180 -270 180 C-270 172.74 -270 165.48 -270 158 C-262.74 158 -255.48 158 -248 158 C-248 172.52 -248 187.04 -248 202 C-240.41 202 -232.82 202 -225 202 C-225 209.59 -225 217.18 -225 225 C-217.74 225 -210.48 225 -203 225 C-203 239.85 -203 254.7 -203 270 C-195.41 270 -187.82 270 -180 270 C-180 262.41 -180 254.82 -180 247 C-172.74 247 -165.48 247 -158 247 C-158 239.74 -158 232.48 -158 225 C-120.71 225 -83.42 225 -45 225 C-45 232.26 -45 239.52 -45 247 C-30.15 247 -15.3 247 0 247 C0 202.45 0 157.9 0 112 C-7.59 112 -15.18 112 -23 112 C-23 119.59 -23 127.18 -23 135 C-30.26 135 -37.52 135 -45 135 C-45 127.41 -45 119.82 -45 112 C-52.59 112 -60.18 112 -68 112 C-68 104.74 -68 97.48 -68 90 C-45.56 90 -23.12 90 0 90 C0 60.3 0 30.6 0 0 Z " fill="#2C2521" transform="translate(562,225)"/>
<path d="M0 0 C22.11 0 44.22 0 67 0 C67 7.59 67 15.18 67 23 C81.85 23 96.7 23 112 23 C112 30.26 112 37.52 112 45 C126.85 45 141.7 45 157 45 C157 67.44 157 89.88 157 113 C82.75 113 8.5 113 -68 113 C-68 98.15 -68 83.3 -68 68 C-60.41 68 -52.82 68 -45 68 C-45 60.41 -45 52.82 -45 45 C-37.74 45 -30.48 45 -23 45 C-23 37.74 -23 30.48 -23 23 C-15.41 23 -7.82 23 0 23 C0 15.41 0 7.82 0 0 Z " fill="#8B2942" transform="translate(157,607)"/>
<path d="M0 0 C14.85 0 29.7 0 45 0 C45 7.59 45 15.18 45 23 C52.26 23 59.52 23 67 23 C67 30.26 67 37.52 67 45 C74.92 45 82.84 45 91 45 C91 67.44 91 89.88 91 113 C53.71 113 16.42 113 -22 113 C-22 105.74 -22 98.48 -22 91 C-10.615 90.505 -10.615 90.505 1 90 C0.67 82.41 0.34 74.82 0 67 C-1.94471191 67.03029297 -3.88942383 67.06058594 -5.89306641 67.09179688 C-12.41483309 67.19298293 -18.9366227 67.29257545 -25.45842934 67.39115143 C-29.40149963 67.45080575 -33.34455897 67.51104345 -37.28759766 67.57275391 C-54.85998065 67.84734734 -72.42472888 68.06248985 -90 68 C-90 60.41 -90 52.82 -90 45 C-82.74 45 -75.48 45 -68 45 C-68 37.74 -68 30.48 -68 23 C-45.56 23 -23.12 23 0 23 C0 15.41 0 7.82 0 0 Z " fill="#8C2841" transform="translate(517,607)"/>
<path d="M0 0 C7.59 0 15.18 0 23 0 C23 14.85 23 29.7 23 45 C30.26 45 37.52 45 45 45 C45 52.59 45 60.18 45 68 C52.59 68 60.18 68 68 68 C68 75.26 68 82.52 68 90 C75.26 90 82.52 90 90 90 C90 97.59 90 105.18 90 113 C97.59 113 105.18 113 113 113 C113 120.26 113 127.52 113 135 C120.26 135 127.52 135 135 135 C135 149.85 135 164.7 135 180 C112.89 180 90.78 180 68 180 C68 172.74 68 165.48 68 158 C60.41 158 52.82 158 45 158 C45 150.41 45 142.82 45 135 C37.74 135 30.48 135 23 135 C23 127.74 23 120.48 23 113 C15.41 113 7.82 113 0 113 C0 75.71 0 38.42 0 0 Z " fill="#FEC8A9" transform="translate(269,472)"/>
<path d="M0 0 C59.4 0 118.8 0 180 0 C180 7.26 180 14.52 180 22 C135.45 22 90.9 22 45 22 C45 29.59 45 37.18 45 45 C37.41 45 29.82 45 22 45 C22 52.26 22 59.52 22 67 C14.74 67 7.48 67 0 67 C0 81.85 0 96.7 0 112 C-7.59 112 -15.18 112 -23 112 C-23 119.59 -23 127.18 -23 135 C-29.93 135 -36.86 135 -44 135 C-44.02255359 126.41193889 -44.04091657 117.82390064 -44.05181217 109.23581791 C-44.05704036 105.248428 -44.06413684 101.26105933 -44.07543945 97.27368164 C-44.08627061 93.42874886 -44.09227732 89.58383655 -44.09487724 85.73888969 C-44.09673108 84.26881017 -44.10035091 82.79873182 -44.10573006 81.32866096 C-44.11294355 79.27645533 -44.11399081 77.22433533 -44.11352539 75.17211914 C-44.115746 74.00185684 -44.11796661 72.83159454 -44.12025452 71.62586975 C-44 69 -44 69 -43 68 C-41.44051458 67.84313751 -39.87457332 67.74923361 -38.30859375 67.68359375 C-37.36435547 67.64169922 -36.42011719 67.59980469 -35.44726562 67.55664062 C-34.45404297 67.51732422 -33.46082031 67.47800781 -32.4375 67.4375 C-31.44041016 67.39431641 -30.44332031 67.35113281 -29.41601562 67.30664062 C-26.9441585 67.20019702 -24.4721969 67.09818072 -22 67 C-22.00785522 66.15236084 -22.00785522 66.15236084 -22.01586914 65.28759766 C-22.03662422 62.7334097 -22.0496554 60.17923947 -22.0625 57.625 C-22.07087891 56.73554688 -22.07925781 55.84609375 -22.08789062 54.9296875 C-22.09111328 54.07890625 -22.09433594 53.228125 -22.09765625 52.3515625 C-22.10551147 51.17327881 -22.10551147 51.17327881 -22.11352539 49.97119141 C-22 48 -22 48 -21 46 C-14.4 46 -7.8 46 -1 46 C-0.67 30.82 -0.34 15.64 0 0 Z " fill="#FEC8A9" transform="translate(292,158)"/>
<path d="M0 0 C7.26 0 14.52 0 22 0 C22 89.1 22 178.2 22 270 C14.74 270 7.48 270 0 270 C0 217.86 0 165.72 0 112 C-7.59 112 -15.18 112 -23 112 C-23 119.59 -23 127.18 -23 135 C-30.26 135 -37.52 135 -45 135 C-45 127.41 -45 119.82 -45 112 C-52.59 112 -60.18 112 -68 112 C-68 104.74 -68 97.48 -68 90 C-45.56 90 -23.12 90 0 90 C0 60.3 0 30.6 0 0 Z " fill="#141313" transform="translate(562,225)"/>
<path d="M0 0 C14.85 0 29.7 0 45 0 C45 7.26 45 14.52 45 22 C37.74 22 30.48 22 23 22 C23 29.59 23 37.18 23 45 C27.35058594 44.75443359 27.35058594 44.75443359 31.7890625 44.50390625 C47.19459463 43.74460054 62.61363518 43.88631647 78.03283691 43.93133545 C81.98933361 43.94174891 85.94583717 43.9461708 89.90234375 43.95117188 C97.60158059 43.96174921 105.30078451 43.97871011 113 44 C113.96088383 46.88265149 114.11670941 48.67662271 114.09765625 51.66796875 C114.09443359 52.56064453 114.09121094 53.45332031 114.08789062 54.37304688 C114.07951172 55.30181641 114.07113281 56.23058594 114.0625 57.1875 C114.05798828 58.12787109 114.05347656 59.06824219 114.04882812 60.03710938 C114.03704626 62.35813712 114.02059558 64.67903644 114 67 C111.54724859 68.2263757 109.9494219 68.11415314 107.2109375 68.09765625 C106.36321777 68.09515869 105.51549805 68.09266113 104.64208984 68.09008789 C103.5639502 68.08098389 102.48581055 68.07187988 101.375 68.0625 C97.95125 68.041875 94.5275 68.02125 91 68 C91 75.26 91 82.52 91 90 C54.04 90 17.08 90 -21 90 C-21 75.48 -21 60.96 -21 46 C-10.605 45.505 -10.605 45.505 0 45 C0 30.15 0 15.3 0 0 Z " fill="#8A2942" transform="translate(404,630)"/>
<path d="M0 0 C36.96 0 73.92 0 112 0 C112 29.7 112 59.4 112 90 C104.74 90 97.48 90 90 90 C90 97.26 90 104.52 90 112 C82.41 112 74.82 112 67 112 C67 97.15 67 82.3 67 67 C59.74 67 52.48 67 45 67 C44.67 52.48 44.34 37.96 44 23 C29.48 23 14.96 23 0 23 C0 15.41 0 7.82 0 0 Z " fill="#FDD7C1" transform="translate(337,315)"/>
<path d="M0 0 C22.44 0 44.88 0 68 0 C68 7.26 68 14.52 68 22 C90.44 22 112.88 22 136 22 C136 29.59 136 37.18 136 45 C135.67 45.33 135.34 45.66 135 46 C128.07 46 121.14 46 114 46 C114 60.52 114 75.04 114 90 C91.23 90 68.46 90 45 90 C45 67.56 45 45.12 45 22 C30.15 22 15.3 22 0 22 C0 14.74 0 7.48 0 0 Z " fill="#5D363E" transform="translate(269,630)"/>
<path d="M0 0 C14.85 0 29.7 0 45 0 C45 7.59 45 15.18 45 23 C52.26 23 59.52 23 67 23 C67 30.26 67 37.52 67 45 C74.92 45 82.84 45 91 45 C91 67.44 91 89.88 91 113 C75.82 113 60.64 113 45 113 C45 98.15 45 83.3 45 68 C37.41 68 29.82 68 22 68 C22 60.41 22 52.82 22 45 C14.74 45 7.48 45 0 45 C0 30.15 0 15.3 0 0 Z " fill="#FD98A8" transform="translate(517,607)"/>
<path d="M0 0 C66.66 0 133.32 0 202 0 C202 7.59 202 15.18 202 23 C135.34 23 68.68 23 0 23 C0 15.41 0 7.82 0 0 Z " fill="#141314" transform="translate(292,135)"/>
<path d="M0 0 C6.10559655 -0.02290553 12.21104516 -0.04283367 18.31665039 -0.05493164 C20.39543156 -0.05997288 22.47420916 -0.06680574 24.55297852 -0.07543945 C27.53402586 -0.08751422 30.51502649 -0.09323024 33.49609375 -0.09765625 C34.89921059 -0.10539818 34.89921059 -0.10539818 36.33067322 -0.11329651 C37.19149002 -0.11337204 38.05230682 -0.11344757 38.93920898 -0.11352539 C40.08171364 -0.11685631 40.08171364 -0.11685631 41.24729919 -0.12025452 C43 0 43 0 44 1 C44 7.93 44 14.86 44 22 C58.85 22 73.7 22 89 22 C89 29.26 89 36.52 89 44 C96.59 44 104.18 44 112 44 C112 51.59 112 59.18 112 67 C104.41 67 96.82 67 89 67 C89 74.26 89 81.52 89 89 C81.74 89 74.48 89 67 89 C67 81.74 67 74.48 67 67 C59.41 67 51.82 67 44 67 C44 59.41 44 51.82 44 44 C36.74 44 29.48 44 22 44 C22 36.74 22 29.48 22 22 C14.74 22 7.48 22 0 22 C0 14.74 0 7.48 0 0 Z " fill="#912540" transform="translate(180,608)"/>
<path d="M0 0 C22.11 0 44.22 0 67 0 C67 14.85 67 29.7 67 45 C74.59 45 82.18 45 90 45 C90 52.26 90 59.52 90 67 C75.15 67 60.3 67 45 67 C45 52.15 45 37.3 45 22 C30.48 22 15.96 22 1 22 C1 36.52 1 51.04 1 66 C0.67 66 0.34 66 0 66 C0 44.22 0 22.44 0 0 Z " fill="#52524F" transform="translate(202,540)"/>
<path d="M0 0 C22.44 0 44.88 0 68 0 C68.96088383 2.88265149 69.11670941 4.67662271 69.09765625 7.66796875 C69.09282227 9.00698242 69.09282227 9.00698242 69.08789062 10.37304688 C69.07532227 11.76620117 69.07532227 11.76620117 69.0625 13.1875 C69.05798828 14.12787109 69.05347656 15.06824219 69.04882812 16.03710938 C69.03704626 18.35813712 69.02059558 20.67903644 69 23 C66.54724859 24.2263757 64.9494219 24.11415314 62.2109375 24.09765625 C61.36321777 24.09515869 60.51549805 24.09266113 59.64208984 24.09008789 C58.5639502 24.08098389 57.48581055 24.07187988 56.375 24.0625 C52.95125 24.041875 49.5275 24.02125 46 24 C46 31.26 46 38.52 46 46 C38.41 46 30.82 46 23 46 C23 38.41 23 30.82 23 23 C8.15 23 -6.7 23 -22 23 C-22 16.07 -22 9.14 -22 2 C-14.74 2 -7.48 2 0 2 C0 1.34 0 0.68 0 0 Z " fill="#33454D" transform="translate(449,674)"/>
<path d="M0 0 C29.7 0 59.4 0 90 0 C90 7.26 90 14.52 90 22 C82.41 22 74.82 22 67 22 C67 29.59 67 37.18 67 45 C59.74 45 52.48 45 45 45 C44.67 37.74 44.34 30.48 44 23 C29.48 23 14.96 23 0 23 C0 15.41 0 7.82 0 0 Z " fill="#6B473C" transform="translate(337,315)"/>
<path d="M0 0 C14.85 0 29.7 0 45 0 C45 14.85 45 29.7 45 45 C22.89 45 0.78 45 -22 45 C-22 37.74 -22 30.48 -22 23 C-14.41 22.67 -6.82 22.34 1 22 C0.67 14.74 0.34 7.48 0 0 Z " fill="#8C2841" transform="translate(517,675)"/>
<path d="M0 0 C7.26 0 14.52 0 22 0 C22 36.96 22 73.92 22 112 C14.74 112 7.48 112 0 112 C0 75.04 0 38.08 0 0 Z " fill="#151411" transform="translate(247,428)"/>
<path d="M0 0 C7.59 0 15.18 0 23 0 C23 29.7 23 59.4 23 90 C15.41 90 7.82 90 0 90 C0 60.3 0 30.6 0 0 Z " fill="#141313" transform="translate(224,225)"/>
<path d="M0 0 C14.85 0 29.7 0 45 0 C45 14.85 45 29.7 45 45 C30.15 45 15.3 45 0 45 C0 30.15 0 15.3 0 0 Z " fill="#23A373" transform="translate(337,675)"/>
<path d="M0 0 C22.44 0 44.88 0 68 0 C68 7.26 68 14.52 68 22 C60.41 22 52.82 22 45 22 C45 29.59 45 37.18 45 45 C37.74 45 30.48 45 23 45 C23 37.41 23 29.82 23 22 C15.41 22 7.82 22 0 22 C0 14.74 0 7.48 0 0 Z " fill="#6A483D" transform="translate(494,315)"/>
<path d="M0 0 C7.26 0 14.52 0 22 0 C22 29.7 22 59.4 22 90 C14.74 90 7.48 90 0 90 C0 60.3 0 30.6 0 0 Z " fill="#151412" transform="translate(202,315)"/>
<path d="M0 0 C7.26 0 14.52 0 22 0 C22 29.7 22 59.4 22 90 C14.74 90 7.48 90 0 90 C0 60.3 0 30.6 0 0 Z " fill="#E1A17C" transform="translate(427,315)"/>
<path d="M0 0 C22.77 0 45.54 0 69 0 C69 7.59 69 15.18 69 23 C68.505 23.495 68.505 23.495 68 24 C61.07 24 54.14 24 47 24 C47 38.52 47 53.04 47 68 C46.67 68 46.34 68 46 68 C46 53.15 46 38.3 46 23 C31.15 23 16.3 23 1 23 C1 37.85 1 52.7 1 68 C0.34 68 -0.32 68 -1 68 C-1.02518831 61.85172812 -1.04308427 55.70348787 -1.05493164 49.55517578 C-1.05988349 47.47444128 -1.06664674 45.3937101 -1.07543945 43.31298828 C-1.08791609 40.27896288 -1.09331938 37.24498435 -1.09765625 34.2109375 C-1.10281754 33.31829193 -1.10797882 32.42564636 -1.11329651 31.50595093 C-1.11416238 20.96738657 -0.48028647 10.56630238 0 0 Z " fill="#264538" transform="translate(336,652)"/>
<path d="M0 0 C22.11 0 44.22 0 67 0 C67 7.59 67 15.18 67 23 C44.89 23 22.78 23 0 23 C0 15.41 0 7.82 0 0 Z " fill="#D26759" transform="translate(427,472)"/>
<path d="M0 0 C7.26 0 14.52 0 22 0 C22 7.26 22 14.52 22 22 C29.26 22 36.52 22 44 22 C44 29.59 44 37.18 44 45 C29.48 45 14.96 45 0 45 C0 30.15 0 15.3 0 0 Z " fill="#FD95AE" transform="translate(562,675)"/>
<path d="M0 0 C6.10559655 -0.02290553 12.21104516 -0.04283367 18.31665039 -0.05493164 C20.39543156 -0.05997288 22.47420916 -0.06680574 24.55297852 -0.07543945 C27.53402586 -0.08751422 30.51502649 -0.09323024 33.49609375 -0.09765625 C34.89921059 -0.10539818 34.89921059 -0.10539818 36.33067322 -0.11329651 C37.19149002 -0.11337204 38.05230682 -0.11344757 38.93920898 -0.11352539 C40.08171364 -0.11685631 40.08171364 -0.11685631 41.24729919 -0.12025452 C43 0 43 0 44 1 C44.09268999 2.35094982 44.11747326 3.70667091 44.11352539 5.06079102 C44.11344986 5.92160782 44.11337433 6.78242462 44.11329651 7.66932678 C44.10813522 8.60473801 44.10297394 9.54014923 44.09765625 10.50390625 C44.0962413 11.45692123 44.09482635 12.40993622 44.09336853 13.39183044 C44.08775152 16.44875165 44.07519616 19.50560077 44.0625 22.5625 C44.05748719 24.62955624 44.05292391 26.69661362 44.04882812 28.76367188 C44.03862558 33.84249833 44.01905356 38.92116806 44 44 C36.74 44 29.48 44 22 44 C22 36.74 22 29.48 22 22 C14.74 22 7.48 22 0 22 C0 14.74 0 7.48 0 0 Z " fill="#FB1549" transform="translate(180,608)"/>
<path d="M0 0 C7.59 0 15.18 0 23 0 C23 14.85 23 29.7 23 45 C15.41 45 7.82 45 0 45 C0 30.15 0 15.3 0 0 Z " fill="#354646" transform="translate(89,675)"/>
<path d="M0 0 C14.85 0 29.7 0 45 0 C45 7.59 45 15.18 45 23 C30.15 23 15.3 23 0 23 C0 15.41 0 7.82 0 0 Z " fill="#FD1348" transform="translate(517,607)"/>
<path d="M0 0 C7.59 0 15.18 0 23 0 C23 14.85 23 29.7 23 45 C15.41 45 7.82 45 0 45 C0 30.15 0 15.3 0 0 Z " fill="#FDB3B5" transform="translate(404,382)"/>
<path d="M0 0 C7.59 0 15.18 0 23 0 C23 14.85 23 29.7 23 45 C15.41 45 7.82 45 0 45 C0 30.15 0 15.3 0 0 Z " fill="#FDB3B5" transform="translate(359,270)"/>
<path d="M0 0 C7.59 0 15.18 0 23 0 C23 14.85 23 29.7 23 45 C15.41 45 7.82 45 0 45 C0 30.15 0 15.3 0 0 Z " fill="#151410" transform="translate(269,158)"/>
<path d="M0 0 C7.26 0 14.52 0 22 0 C22 14.85 22 29.7 22 45 C14.74 45 7.48 45 0 45 C0 30.15 0 15.3 0 0 Z " fill="#F91647" transform="translate(562,630)"/>
<path d="M0 0 C14.85 0 29.7 0 45 0 C45 7.26 45 14.52 45 22 C30.15 22 15.3 22 0 22 C0 14.74 0 7.48 0 0 Z " fill="#FDD8C1" transform="translate(494,495)"/>
<path d="M0 0 C14.85 0 29.7 0 45 0 C45 7.26 45 14.52 45 22 C30.15 22 15.3 22 0 22 C0 14.74 0 7.48 0 0 Z " fill="#FCD8C2" transform="translate(382,495)"/>
<path d="M0 0 C14.85 0 29.7 0 45 0 C45 7.26 45 14.52 45 22 C30.15 22 15.3 22 0 22 C0 14.74 0 7.48 0 0 Z " fill="#E1A07C" transform="translate(449,405)"/>
<path d="M0 0 C7.26 0 14.52 0 22 0 C22 14.85 22 29.7 22 45 C14.74 45 7.48 45 0 45 C0 30.15 0 15.3 0 0 Z " fill="#FDC8A9" transform="translate(247,338)"/>
<path d="M0 0 C7.59 0 15.18 0 23 0 C22.34 14.52 21.68 29.04 21 44 C14.4 44 7.8 44 1 44 C0.23615584 29.29599992 -0.09560717 14.72350437 0 0 Z " fill="#5C363E" transform="translate(404,630)"/>
<path d="M0 0 C6.93 0 13.86 0 21 0 C21 14.52 21 29.04 21 44 C14.07 44 7.14 44 0 44 C0 29.48 0 14.96 0 0 Z " fill="#5C363E" transform="translate(383,676)"/>
<path d="M0 0 C66.66 0 133.32 0 202 0 C202 7.59 202 15.18 202 23 C201.67 23 201.34 23 201 23 C200.67 16.4 200.34 9.8 200 3 C134.33 2.67 68.66 2.34 1 2 C1 8.6 1 15.2 1 22 C65.68 22 130.36 22 197 22 C197 22.33 197 22.66 197 23 C131.99 23 66.98 23 0 23 C0 15.41 0 7.82 0 0 Z " fill="#1C1802" transform="translate(292,135)"/>
<path d="M0 0 C7.59 0 15.18 0 23 0 C23 7.59 23 15.18 23 23 C15.41 23 7.82 23 0 23 C0 15.41 0 7.82 0 0 Z " fill="#F7164A" transform="translate(269,652)"/>
<path d="M0 0 C7.59 0 15.18 0 23 0 C23 7.59 23 15.18 23 23 C15.41 23 7.82 23 0 23 C0 15.41 0 7.82 0 0 Z " fill="#FE1349" transform="translate(224,652)"/>
<path d="M0 0 C7.59 0 15.18 0 23 0 C23 7.59 23 15.18 23 23 C15.41 23 7.82 23 0 23 C0 15.41 0 7.82 0 0 Z " fill="#F71649" transform="translate(179,652)"/>
<path d="M0 0 C7.59 0 15.18 0 23 0 C23 7.59 23 15.18 23 23 C15.41 23 7.82 23 0 23 C0 15.41 0 7.82 0 0 Z " fill="#F6174A" transform="translate(134,652)"/>
<path d="M0 0 C7.59 0 15.18 0 23 0 C23 7.59 23 15.18 23 23 C15.41 23 7.82 23 0 23 C0 15.41 0 7.82 0 0 Z " fill="#141314" transform="translate(224,405)"/>
<path d="M0 0 C7.59 0 15.18 0 23 0 C23 7.59 23 15.18 23 23 C15.41 23 7.82 23 0 23 C0 15.41 0 7.82 0 0 Z " fill="#161411" transform="translate(539,202)"/>
<path d="M0 0 C7.59 0 15.18 0 23 0 C23 7.26 23 14.52 23 22 C15.41 22 7.82 22 0 22 C0 14.74 0 7.48 0 0 Z " fill="#FD1348" transform="translate(584,675)"/>
<path d="M0 0 C7.59 0 15.18 0 23 0 C23 7.26 23 14.52 23 22 C15.41 22 7.82 22 0 22 C0 14.74 0 7.48 0 0 Z " fill="#F6174A" transform="translate(539,675)"/>
<path d="M0 0 C7.26 0 14.52 0 22 0 C22 7.59 22 15.18 22 23 C14.74 23 7.48 23 0 23 C0 15.41 0 7.82 0 0 Z " fill="#F7174A" transform="translate(517,652)"/>
<path d="M0 0 C7.26 0 14.52 0 22 0 C22 7.59 22 15.18 22 23 C14.74 23 7.48 23 0 23 C0 15.41 0 7.82 0 0 Z " fill="#FE1349" transform="translate(427,652)"/>
<path d="M0 0 C7.59 0 15.18 0 23 0 C23 7.26 23 14.52 23 22 C15.41 22 7.82 22 0 22 C0 14.74 0 7.48 0 0 Z " fill="#F8164A" transform="translate(494,630)"/>
<path d="M0 0 C7.59 0 15.18 0 23 0 C23 7.26 23 14.52 23 22 C15.41 22 7.82 22 0 22 C0 14.74 0 7.48 0 0 Z " fill="#F7164A" transform="translate(449,630)"/>
<path d="M0 0 C7.59 0 15.18 0 23 0 C23 7.26 23 14.52 23 22 C15.41 22 7.82 22 0 22 C0 14.74 0 7.48 0 0 Z " fill="#8D2741" transform="translate(224,630)"/>
<path d="M0 0 C7.59 0 15.18 0 23 0 C23 7.26 23 14.52 23 22 C15.41 22 7.82 22 0 22 C0 14.74 0 7.48 0 0 Z " fill="#394346" transform="translate(134,630)"/>
<path d="M0 0 C7.26 0 14.52 0 22 0 C22 7.59 22 15.18 22 23 C14.74 23 7.48 23 0 23 C0 15.41 0 7.82 0 0 Z " fill="#535150" transform="translate(292,607)"/>
<path d="M0 0 C7.26 0 14.52 0 22 0 C22 7.59 22 15.18 22 23 C14.74 23 7.48 23 0 23 C0 15.41 0 7.82 0 0 Z " fill="#161312" transform="translate(382,337)"/>
<path d="M0 0 C7.26 0 14.52 0 22 0 C22 7.59 22 15.18 22 23 C14.74 23 7.48 23 0 23 C0 15.41 0 7.82 0 0 Z " fill="#161311" transform="translate(517,337)"/>
<path d="M0 0 C7.59 0 15.18 0 23 0 C23 7.26 23 14.52 23 22 C15.41 22 7.82 22 0 22 C0 14.74 0 7.48 0 0 Z " fill="#151410" transform="translate(494,158)"/>
<path d="M0 0 C7.26 0 14.52 0 22 0 C22 7.59 22 15.18 22 23 C14.74 23 7.48 23 0 23 C0 15.41 0 7.82 0 0 Z " fill="#FBC8AB" transform="translate(247,405)"/>
<path d="M0 0 C7.26 0 14.52 0 22 0 C22 7.26 22 14.52 22 22 C14.74 22 7.48 22 0 22 C0 14.74 0 7.48 0 0 Z " fill="#F5174A" transform="translate(247,675)"/>
<path d="M0 0 C7.26 0 14.52 0 22 0 C22 7.26 22 14.52 22 22 C14.74 22 7.48 22 0 22 C0 14.74 0 7.48 0 0 Z " fill="#F5174A" transform="translate(247,630)"/>
<path d="M0 0 C7.26 0 14.52 0 22 0 C22 7.26 22 14.52 22 22 C14.74 22 7.48 22 0 22 C0 14.74 0 7.48 0 0 Z " fill="#FDB3B6" transform="translate(382,360)"/>
<path d="M0 0 C7.26 0 14.52 0 22 0 C22 7.26 22 14.52 22 22 C14.74 22 7.48 22 0 22 C0 14.74 0 7.48 0 0 Z " fill="#B9727C" transform="translate(382,315)"/>
<path d="M0 0 C7.26 0 14.52 0 22 0 C22 7.26 22 14.52 22 22 C14.74 22 7.48 22 0 22 C0 14.74 0 7.48 0 0 Z " fill="#141313" transform="translate(247,203)"/>
<path d="M0 0 C7.26 0 14.52 0 22 0 C22 7.26 22 14.52 22 22 C14.74 22 7.48 22 0 22 C0 14.74 0 7.48 0 0 Z " fill="#161410" transform="translate(517,180)"/>
<path d="M0 0 C7.26 0 14.52 0 22 0 C21.67 7.26 21.34 14.52 21 22 C10.605 22.495 10.605 22.495 0 23 C0 15.41 0 7.82 0 0 Z " fill="#364642" transform="translate(157,607)"/>
<path d="M0 0 C6.93 0 13.86 0 21 0 C21 7.26 21 14.52 21 22 C14.07 22 7.14 22 0 22 C0 14.74 0 7.48 0 0 Z " fill="#344647" transform="translate(112,652)"/>
<path d="M0 0 C22.44 0 44.88 0 68 0 C68.96088383 2.88265149 69.11670941 4.67662271 69.09765625 7.66796875 C69.09282227 9.00698242 69.09282227 9.00698242 69.08789062 10.37304688 C69.07532227 11.76620117 69.07532227 11.76620117 69.0625 13.1875 C69.05798828 14.12787109 69.05347656 15.06824219 69.04882812 16.03710938 C69.03704626 18.35813712 69.02059558 20.67903644 69 23 C66.54724859 24.2263757 64.9494219 24.11415314 62.2109375 24.09765625 C61.36321777 24.09515869 60.51549805 24.09266113 59.64208984 24.09008789 C58.5639502 24.08098389 57.48581055 24.07187988 56.375 24.0625 C52.95125 24.041875 49.5275 24.02125 46 24 C46 31.26 46 38.52 46 46 C45.34 46 44.68 46 44 46 C43.97113016 42.02084841 43.95324594 38.04172347 43.9375 34.0625 C43.92912109 32.92619141 43.92074219 31.78988281 43.91210938 30.61914062 C43.90888672 29.53955078 43.90566406 28.45996094 43.90234375 27.34765625 C43.89710693 26.34742432 43.89187012 25.34719238 43.88647461 24.31665039 C44 22 44 22 45 21 C46.56172745 20.91314397 48.12729344 20.89297781 49.69140625 20.90234375 C50.63564453 20.90556641 51.57988281 20.90878906 52.55273438 20.91210938 C53.54595703 20.92048828 54.53917969 20.92886719 55.5625 20.9375 C56.55958984 20.94201172 57.55667969 20.94652344 58.58398438 20.95117188 C61.05601487 20.96299977 63.52801472 20.98093585 66 21 C66 15.06 66 9.12 66 3 C37.29 3 8.58 3 -21 3 C-21 9.27 -21 15.54 -21 22 C-6.81 22 7.38 22 22 22 C22 22.33 22 22.66 22 23 C7.48 23 -7.04 23 -22 23 C-22 16.07 -22 9.14 -22 2 C-14.74 2 -7.48 2 0 2 C0 1.34 0 0.68 0 0 Z " fill="#543947" transform="translate(449,674)"/>
<path d="M0 0 C6.6 0 13.2 0 20 0 C20 6.93 20 13.86 20 21 C13.4 21 6.8 21 0 21 C0 14.07 0 7.14 0 0 Z " fill="#FA1549" transform="translate(158,631)"/>
<path d="M0 0 C0.66 0 1.32 0 2 0 C2 14.85 2 29.7 2 45 C-5.26 45 -12.52 45 -20 45 C-20 52.26 -20 59.52 -20 67 C-27.59 67 -35.18 67 -43 67 C-43 96.7 -43 126.4 -43 157 C-50.26 157 -57.52 157 -65 157 C-65 186.7 -65 216.4 -65 247 C-65.33 247 -65.66 247 -66 247 C-66 216.97 -66 186.94 -66 156 C-58.74 156 -51.48 156 -44 156 C-44.00523682 153.27886963 -44.01047363 150.55773926 -44.01586914 147.75415039 C-44.03240401 138.78549875 -44.04347081 129.81684645 -44.05181217 120.84818363 C-44.05704128 115.40797688 -44.06413943 109.96778569 -44.07543945 104.52758789 C-44.08626735 99.28214298 -44.09227662 94.03671308 -44.09487724 88.79125786 C-44.09673167 86.78529054 -44.10035262 84.77932408 -44.10573006 82.77336311 C-44.11293919 79.97397176 -44.113991 77.17464321 -44.11352539 74.37524414 C-44.11712067 73.53727295 -44.12071594 72.69930176 -44.12442017 71.8359375 C-44.11405216 66.11405216 -44.11405216 66.11405216 -43 65 C-41.43827255 64.91314397 -39.87270656 64.89297781 -38.30859375 64.90234375 C-37.36435547 64.90556641 -36.42011719 64.90878906 -35.44726562 64.91210938 C-34.45404297 64.92048828 -33.46082031 64.92886719 -32.4375 64.9375 C-31.44041016 64.94201172 -30.44332031 64.94652344 -29.41601562 64.95117188 C-26.94395151 64.96299993 -24.47200482 64.97948151 -22 65 C-22.01571045 64.10692139 -22.01571045 64.10692139 -22.03173828 63.19580078 C-22.07323949 60.50557657 -22.09930704 57.81541963 -22.125 55.125 C-22.14175781 54.18785156 -22.15851563 53.25070313 -22.17578125 52.28515625 C-22.18544922 50.94130859 -22.18544922 50.94130859 -22.1953125 49.5703125 C-22.21102295 48.32918701 -22.21102295 48.32918701 -22.22705078 47.06298828 C-22 45 -22 45 -20 43 C-13.4 43 -6.8 43 0 43 C0 28.81 0 14.62 0 0 Z " fill="#F4F53A" transform="translate(267,158)"/>
<path d="M0 0 C6.6 0 13.2 0 20 0 C20 6.6 20 13.2 20 20 C13.4 20 6.8 20 0 20 C0 13.4 0 6.8 0 0 Z " fill="#8A2841" transform="translate(181,631)"/>
<path d="M0 0 C7.26 0 14.52 0 22 0 C22 89.1 22 178.2 22 270 C14.74 270 7.48 270 0 270 C0 269.34 0 268.68 0 268 C6.93 268 13.86 268 21 268 C21 180.22 21 92.44 21 2 C10.13368268 1.61245811 10.13368268 1.61245811 0 4 C0 2.68 0 1.36 0 0 Z " fill="#1B1B00" transform="translate(562,225)"/>
<path d="M0 0 C22.77 0 45.54 0 69 0 C69 7.59 69 15.18 69 23 C68.505 23.495 68.505 23.495 68 24 C61.07 24 54.14 24 47 24 C47 38.52 47 53.04 47 68 C46.67 68 46.34 68 46 68 C45.97472938 61.60962769 45.95716683 55.21926817 45.94506836 48.82885742 C45.94002692 46.65307127 45.93319393 44.47728853 45.92456055 42.30151367 C45.91248662 39.18146933 45.90676995 36.06146962 45.90234375 32.94140625 C45.89718246 31.96224747 45.89202118 30.98308868 45.88670349 29.97425842 C45.88662796 29.07340012 45.88655243 28.17254181 45.88647461 27.24438477 C45.884254 26.44718521 45.88203339 25.64998566 45.87974548 24.82862854 C46 23 46 23 47 22 C48.48638992 21.84344973 49.97949127 21.74933057 51.47265625 21.68359375 C52.68707397 21.62643188 52.68707397 21.62643188 53.92602539 21.56811523 C54.96106201 21.52501221 55.99609863 21.48190918 57.0625 21.4375 C61.9815625 21.2209375 61.9815625 21.2209375 67 21 C67 14.4 67 7.8 67 1 C45.88 1 24.76 1 3 1 C2.19288043 17.99505079 2.19288043 17.99505079 1.68359375 34.9921875 C1.66281265 35.95988068 1.64203156 36.92757385 1.62062073 37.92459106 C1.55710204 40.90801518 1.49719929 43.8914973 1.4375 46.875 C1.3941248 48.94271348 1.35050594 51.01042186 1.30664062 53.078125 C1.20163626 58.05202945 1.09986554 63.02598983 1 68 C0.34 68 -0.32 68 -1 68 C-1.02518831 61.85172812 -1.04308427 55.70348787 -1.05493164 49.55517578 C-1.05988349 47.47444128 -1.06664674 45.3937101 -1.07543945 43.31298828 C-1.08791609 40.27896288 -1.09331938 37.24498435 -1.09765625 34.2109375 C-1.10281754 33.31829193 -1.10797882 32.42564636 -1.11329651 31.50595093 C-1.11416238 20.96738657 -0.48028647 10.56630238 0 0 Z " fill="#3F413A" transform="translate(336,652)"/>
<path d="M0 0 C7.59 0 15.18 0 23 0 C23 0.33 23 0.66 23 1 C15.74 1 8.48 1 1 1 C1.01160156 2.64871094 1.02320313 4.29742188 1.03515625 5.99609375 C1.04453238 8.14322804 1.05363277 10.29036355 1.0625 12.4375 C1.07087891 13.52611328 1.07925781 14.61472656 1.08789062 15.73632812 C1.09272461 17.28803711 1.09272461 17.28803711 1.09765625 18.87109375 C1.10551147 20.30859985 1.10551147 20.30859985 1.11352539 21.77514648 C1 24 1 24 0 25 C-1.4887186 25.08669432 -2.981445 25.10703494 -4.47265625 25.09765625 C-5.37177734 25.09443359 -6.27089844 25.09121094 -7.19726562 25.08789062 C-8.14279297 25.07951172 -9.08832031 25.07113281 -10.0625 25.0625 C-11.01189453 25.05798828 -11.96128906 25.05347656 -12.93945312 25.04882812 C-15.29299531 25.03700128 -17.64650532 25.01906521 -20 25 C-20 30.94 -20 36.88 -20 43 C-18.70263916 42.99476318 -17.40527832 42.98952637 -16.06860352 42.98413086 C-11.27352585 42.96608531 -6.4784512 42.95456963 -1.68334961 42.94506836 C0.39543156 42.94002712 2.47420916 42.93319426 4.55297852 42.92456055 C7.53402586 42.91248578 10.51502649 42.90676976 13.49609375 42.90234375 C14.89921059 42.89460182 14.89921059 42.89460182 16.33067322 42.88670349 C17.19149002 42.88662796 18.05230682 42.88655243 18.93920898 42.88647461 C19.70087875 42.884254 20.46254852 42.88203339 21.24729919 42.87974548 C23 43 23 43 24 44 C24.08713831 45.70772358 24.10700007 47.41898649 24.09765625 49.12890625 C24.09443359 50.16337891 24.09121094 51.19785156 24.08789062 52.26367188 C24.07532227 53.8965918 24.07532227 53.8965918 24.0625 55.5625 C24.05798828 56.65498047 24.05347656 57.74746094 24.04882812 58.87304688 C24.0369984 61.58205432 24.01906231 64.2910338 24 67 C30.93 67 37.86 67 45 67 C45 67.33 45 67.66 45 68 C37.74 68 30.48 68 23 68 C23 60.41 23 52.82 23 45 C8.15 45 -6.7 45 -22 45 C-22 37.74 -22 30.48 -22 23 C-14.74 23 -7.48 23 0 23 C0 15.41 0 7.82 0 0 Z " fill="#FAEB39" transform="translate(539,562)"/>
<path d="M0 0 C7.59 0 15.18 0 23 0 C23 14.85 23 29.7 23 45 C30.26 45 37.52 45 45 45 C45 52.59 45 60.18 45 68 C44.67 68 44.34 68 44 68 C44 61.07 44 54.14 44 47 C42.42347656 47.01160156 40.84695313 47.02320313 39.22265625 47.03515625 C37.16927201 47.04453243 35.1158865 47.05363282 33.0625 47.0625 C32.02158203 47.07087891 30.98066406 47.07925781 29.90820312 47.08789062 C28.42416992 47.09272461 28.42416992 47.09272461 26.91015625 47.09765625 C25.53549194 47.10551147 25.53549194 47.10551147 24.13305664 47.11352539 C22 47 22 47 21 46 C20.9072167 44.61839885 20.88252957 43.23211962 20.88647461 41.84741211 C20.88655014 40.96657455 20.88662567 40.085737 20.88670349 39.1782074 C20.89444542 37.74227989 20.89444542 37.74227989 20.90234375 36.27734375 C20.9037587 35.30213272 20.90517365 34.32692169 20.90663147 33.32215881 C20.91224867 30.19390857 20.92480407 27.06572877 20.9375 23.9375 C20.94251278 21.82226666 20.94707607 19.70703219 20.95117188 17.59179688 C20.96222369 12.39450393 20.97949984 7.19726392 21 2 C14.73 2 8.46 2 2 2 C2 37.97 2 73.94 2 111 C8.93 111.33 15.86 111.66 23 112 C23 112.33 23 112.66 23 113 C15.41 113 7.82 113 0 113 C0 75.71 0 38.42 0 0 Z " fill="#F1CCB7" transform="translate(269,472)"/>
<path d="M0 0 C22.11 0 44.22 0 67 0 C67 7.59 67 15.18 67 23 C44.89 23 22.78 23 0 23 C0 15.41 0 7.82 0 0 Z M2 1 C2 7.6 2 14.2 2 21 C33.68 21.495 33.68 21.495 66 22 C66 15.07 66 8.14 66 1 C44.88 1 23.76 1 2 1 Z " fill="#BE6F64" transform="translate(427,472)"/>
<path d="M0 0 C7.59 0 15.18 0 23 0 C23 29.7 23 59.4 23 90 C15.41 90 7.82 90 0 90 C0 60.3 0 30.6 0 0 Z M1 2 C1 30.71 1 59.42 1 89 C7.27 89 13.54 89 20 89 C22.54745813 86.45254187 22.23554071 84.82997798 22.24884033 81.35694885 C22.24164978 80.56932663 22.23445923 79.78170441 22.22705078 78.97021484 C22.22734283 78.14086929 22.22763489 77.31152374 22.22793579 76.45704651 C22.22653939 73.70823808 22.21096368 70.95969873 22.1953125 68.2109375 C22.19158347 66.30807646 22.18873598 64.4052135 22.18673706 62.50234985 C22.17909192 57.48814617 22.15943589 52.47405791 22.1373291 47.4598999 C22.11688962 42.34567832 22.10773941 37.23143813 22.09765625 32.1171875 C22.07619079 22.07806607 22.0410015 12.03906068 22 2 C15.07 2 8.14 2 1 2 Z " fill="#1B1B00" transform="translate(224,225)"/>
<path d="M0 0 C0.33 0 0.66 0 1 0 C1 22.11 1 44.22 1 67 C-6.59 67 -14.18 67 -22 67 C-22 74.59 -22 82.18 -22 90 C-29.26 90 -36.52 90 -44 90 C-44 96.93 -44 103.86 -44 111 C-44.66 111 -45.32 111 -46 111 C-46.0580476 107.72924117 -46.09361165 104.45861476 -46.125 101.1875 C-46.14175781 100.25873047 -46.15851562 99.32996094 -46.17578125 98.37304688 C-46.18222656 97.48037109 -46.18867187 96.58769531 -46.1953125 95.66796875 C-46.20578613 94.84578857 -46.21625977 94.0236084 -46.22705078 93.17651367 C-46 91 -46 91 -44 88 C-41.93701172 87.65942383 -41.93701172 87.65942383 -39.4296875 87.70703125 C-38.53378906 87.71669922 -37.63789062 87.72636719 -36.71484375 87.73632812 C-35.77769531 87.76146484 -34.84054687 87.78660156 -33.875 87.8125 C-32.45767578 87.83280273 -32.45767578 87.83280273 -31.01171875 87.85351562 C-28.67391221 87.88893694 -26.33723763 87.93832729 -24 88 C-24.00785522 87.05362671 -24.00785522 87.05362671 -24.01586914 86.08813477 C-24.03657826 83.24626653 -24.04964066 80.40441412 -24.0625 77.5625 C-24.07087891 76.56927734 -24.07925781 75.57605469 -24.08789062 74.55273438 C-24.09272461 73.13637695 -24.09272461 73.13637695 -24.09765625 71.69140625 C-24.10551147 70.37958374 -24.10551147 70.37958374 -24.11352539 69.04125977 C-24 67 -24 67 -23 66 C-15.41 66 -7.82 66 0 66 C0 44.22 0 22.44 0 0 Z " fill="#332E02" transform="translate(561,495)"/>
<path d="M0 0 C0.91644287 0.00523682 1.83288574 0.01047363 2.77709961 0.01586914 C4.26113281 0.02070312 4.26113281 0.02070312 5.77514648 0.02563477 C6.81606445 0.03401367 7.85698242 0.04239258 8.92944336 0.05102539 C10.49662109 0.05779297 10.49662109 0.05779297 12.09545898 0.06469727 C14.68600996 0.07652627 17.27644895 0.0930085 19.86694336 0.11352539 C19.86694336 0.44352539 19.86694336 0.77352539 19.86694336 1.11352539 C12.93694336 1.11352539 6.00694336 1.11352539 -1.13305664 1.11352539 C-0.76469529 6.33452601 -0.76469529 6.33452601 -0.38476562 11.5546875 C-0.26150553 13.40543205 -0.19545364 15.25973061 -0.13305664 17.11352539 C-0.46305664 17.44352539 -0.79305664 17.77352539 -1.13305664 18.11352539 C-1.29130922 20.11134666 -1.38424835 22.11441373 -1.44946289 24.11743164 C-1.49135742 25.33237305 -1.53325195 26.54731445 -1.57641602 27.79907227 C-1.61573242 29.0784668 -1.65504883 30.35786133 -1.69555664 31.67602539 C-1.73874023 32.95928711 -1.78192383 34.24254883 -1.82641602 35.56469727 C-1.93290383 38.74749984 -2.03352085 41.93049782 -2.13305664 45.11352539 C5.12694336 45.11352539 12.38694336 45.11352539 19.86694336 45.11352539 C19.86694336 45.44352539 19.86694336 45.77352539 19.86694336 46.11352539 C12.60694336 46.11352539 5.34694336 46.11352539 -2.13305664 46.11352539 C-2.13305664 52.71352539 -2.13305664 59.31352539 -2.13305664 66.11352539 C-2.46305664 66.11352539 -2.79305664 66.11352539 -3.13305664 66.11352539 C-3.93089364 59.41739343 -4.26216517 52.85585958 -4.13305664 46.11352539 C-5.98930664 46.36102539 -5.98930664 46.36102539 -7.88305664 46.61352539 C-13.63312607 47.26464968 -19.35411804 47.20152953 -25.13305664 47.11352539 C-24.80305664 46.12352539 -24.47305664 45.13352539 -24.13305664 44.11352539 C-17.53305664 44.11352539 -10.93305664 44.11352539 -4.13305664 44.11352539 C-4.16399414 39.31821289 -4.16399414 39.31821289 -4.19555664 34.42602539 C-4.21506707 26.37431547 -4.06470258 18.34448424 -3.69555664 10.30102539 C-3.6563208 9.39457275 -3.61708496 8.48812012 -3.57666016 7.55419922 C-3.20436895 0.1705427 -3.20436895 0.1705427 0 0 Z " fill="#722F41" transform="translate(429.133056640625,629.886474609375)"/>
<path d="M0 0 C7.26 0 14.52 0 22 0 C22 7.59 22 15.18 22 23 C29.59 23 37.18 23 45 23 C45 23.66 45 24.32 45 25 C41.20956819 25.25408976 37.41791947 25.47403593 33.625 25.6875 C32.54476562 25.76033203 31.46453125 25.83316406 30.3515625 25.90820312 C29.3203125 25.96298828 28.2890625 26.01777344 27.2265625 26.07421875 C26.27346191 26.13182373 25.32036133 26.18942871 24.33837891 26.2487793 C23.56671387 26.16668213 22.79504883 26.08458496 22 26 C19.79807776 22.69711664 19.76040032 21.72537273 19.8046875 17.89453125 C19.81113281 16.91162109 19.81757813 15.92871094 19.82421875 14.91601562 C19.84097656 13.89185547 19.85773438 12.86769531 19.875 11.8125 C19.88402344 10.77673828 19.89304688 9.74097656 19.90234375 8.67382812 C19.92592017 6.11578694 19.96179124 3.55786447 20 1 C14.06 1 8.12 1 2 1 C2.02320313 2.56492187 2.04640625 4.12984375 2.0703125 5.7421875 C2.08906723 7.78645358 2.10726775 9.8307248 2.125 11.875 C2.14175781 12.90753906 2.15851563 13.94007813 2.17578125 15.00390625 C2.18222656 15.99003906 2.18867188 16.97617187 2.1953125 17.9921875 C2.20578613 18.90339355 2.21625977 19.81459961 2.22705078 20.75341797 C2 23 2 23 0 25 C-2.24658203 25.22705078 -2.24658203 25.22705078 -5.0078125 25.1953125 C-5.99394531 25.18886719 -6.98007813 25.18242188 -7.99609375 25.17578125 C-9.54490234 25.15064453 -9.54490234 25.15064453 -11.125 25.125 C-12.16527344 25.11597656 -13.20554688 25.10695313 -14.27734375 25.09765625 C-16.85179092 25.07403747 -19.42578212 25.04110149 -22 25 C-22 24.34 -22 23.68 -22 23 C-14.74 23 -7.48 23 0 23 C0 15.41 0 7.82 0 0 Z " fill="#A11D3C" transform="translate(157,652)"/>
<path d="M0 0 C14.85 0 29.7 0 45 0 C45 7.59 45 15.18 45 23 C30.15 23 15.3 23 0 23 C0 15.41 0 7.82 0 0 Z M2 2 C2 8.6 2 15.2 2 22 C15.86 22 29.72 22 44 22 C44 15.4 44 8.8 44 2 C30.14 2 16.28 2 2 2 Z " fill="#DE282F" transform="translate(517,607)"/>
<path d="M0 0 C22.11 0 44.22 0 67 0 C67 7.26 67 14.52 67 22 C66.01 21.01 65.02 20.02 64 19 C64.33 18.34 64.66 17.68 65 17 C65.33 12.05 65.66 7.1 66 2 C44.55 2 23.1 2 1 2 C1.33 8.27 1.66 14.54 2 21 C2.66 21.33 3.32 21.66 4 22 C2.35 22.66 0.7 23.32 -1 24 C-1.33 23.34 -1.66 22.68 -2 22 C-1.34 22 -0.68 22 0 22 C0 14.74 0 7.48 0 0 Z " fill="#3C221B" transform="translate(427,495)"/>
<path d="M0 0 C14.85 0 29.7 0 45 0 C45 14.85 45 29.7 45 45 C37.41 45 29.82 45 22 45 C22 37.41 22 29.82 22 22 C14.74 22 7.48 22 0 22 C0 14.74 0 7.48 0 0 Z M1 1 C-0.57165056 16.24344938 -0.57165056 16.24344938 3 21 C5.02276681 21.50621513 5.02276681 21.50621513 7.3515625 21.51171875 C8.62773438 21.56489258 8.62773438 21.56489258 9.9296875 21.61914062 C10.81914063 21.64169922 11.70859375 21.66425781 12.625 21.6875 C13.97078125 21.73874023 13.97078125 21.73874023 15.34375 21.79101562 C17.56237538 21.87362402 19.7805994 21.94272719 22 22 C23.34914171 26.7476626 22.9839487 31.44865155 22.78515625 36.33203125 C22.70462878 38.68783041 22.70462878 38.68783041 23 42 C26.88256641 44.58837761 30.13223217 44.25793118 34.625 44.1875 C35.41390625 44.18685547 36.2028125 44.18621094 37.015625 44.18554688 C40.81543423 44.51636636 40.81543423 44.51636636 44 43 C44.08873532 39.89769856 44.11525687 36.81712641 44.09765625 33.71484375 C44.09664917 32.8902063 44.09564209 32.06556885 44.09460449 31.21594238 C44.08935592 28.12311419 44.07539477 25.03030576 44.0625 21.9375 C44.041875 15.028125 44.02125 8.11875 44 1 C29.81 1 15.62 1 1 1 Z " fill="#FF89AA" transform="translate(517,630)"/>
<path d="M0 0 C7.59 0 15.18 0 23 0 C23 7.26 23 14.52 23 22 C30.26 22 37.52 22 45 22 C45 14.74 45 7.48 45 0 C52.59 0 60.18 0 68 0 C68 0.66 68 1.32 68 2 C61.07 2 54.14 2 47 2 C47.11862078 8.49231988 47.11862078 8.49231988 47.27026367 14.98388672 C47.27775635 15.79100098 47.28524902 16.59811523 47.29296875 17.4296875 C47.3086792 18.25710449 47.32438965 19.08452148 47.34057617 19.93701172 C47.17199097 20.95819092 47.17199097 20.95819092 47 22 C43.7840895 24.14394034 42.88969066 24.25580474 39.18359375 24.265625 C37.79043945 24.26949219 37.79043945 24.26949219 36.36914062 24.2734375 C35.40169922 24.26570312 34.43425781 24.25796875 33.4375 24.25 C32.46619141 24.25773438 31.49488281 24.26546875 30.49414062 24.2734375 C29.56666016 24.27085937 28.63917969 24.26828125 27.68359375 24.265625 C26.40826782 24.26224121 26.40826782 24.26224121 25.10717773 24.25878906 C23 24 23 24 21 22 C20.86474609 19.84521484 20.86474609 19.84521484 21.0234375 17.2109375 C21.09183838 15.93935791 21.09183838 15.93935791 21.16162109 14.64208984 C21.23203613 13.5639502 21.30245117 12.48581055 21.375 11.375 C21.58125 7.95125 21.7875 4.5275 22 1 C14.74 1 7.48 1 0 1 C0 0.67 0 0.34 0 0 Z " fill="#A41C3C" transform="translate(224,675)"/>
<path d="M0 0 C7.26 0 14.52 0 22 0 C22 0.99 22 1.98 22 3 C15.07 2.34 8.14 1.68 1 1 C1.33 1.99 1.66 2.98 2 4 C2.06249122 6.72448057 2.06669147 9.42029732 2.02172852 12.14331055 C2.01212097 12.97280212 2.00251343 13.8022937 1.99261475 14.65692139 C1.95961842 17.40027335 1.91928844 20.14346638 1.87890625 22.88671875 C1.85460576 24.78814635 1.83076216 26.68957984 1.80735779 28.59101868 C1.74450985 33.59700222 1.67544515 38.60288156 1.60510254 43.60876465 C1.53442555 48.71634168 1.46960478 53.82399262 1.40429688 58.93164062 C1.27527537 68.95450831 1.13968871 78.9772757 1 89 C3.75084547 88.88588196 6.50011947 88.75914051 9.25 88.625 C10.02730469 88.5940625 10.80460938 88.563125 11.60546875 88.53125 C17.07379907 88.27341758 17.07379907 88.27341758 22 86 C22 87.32 22 88.64 22 90 C14.74 90 7.48 90 0 90 C0 60.3 0 30.6 0 0 Z " fill="#F6DAC9" transform="translate(224,315)"/>
<path d="M0 0 C7.59 0 15.18 0 23 0 C23 7.26 23 14.52 23 22 C15.41 22 7.82 22 0 22 C0 14.74 0 7.48 0 0 Z M1 2 C1 7.94 1 13.88 1 20 C7.6 20 14.2 20 21 20 C21 14.06 21 8.12 21 2 C14.4 2 7.8 2 1 2 Z " fill="#E3233D" transform="translate(584,675)"/>
<path d="M0 0 C7.26 0 14.52 0 22 0 C22 7.59 22 15.18 22 23 C14.74 23 7.48 23 0 23 C0 15.41 0 7.82 0 0 Z M2 1 C2 7.6 2 14.2 2 21 C7.94 21 13.88 21 20 21 C20 14.4 20 7.8 20 1 C14.06 1 8.12 1 2 1 Z " fill="#DC234F" transform="translate(427,652)"/>
<path d="M0 0 C7.59 0 15.18 0 23 0 C23 7.59 23 15.18 23 23 C15.41 23 7.82 23 0 23 C0 15.41 0 7.82 0 0 Z M1 1 C1 7.6 1 14.2 1 21 C7.6 21 14.2 21 21 21 C21 14.4 21 7.8 21 1 C14.4 1 7.8 1 1 1 Z " fill="#E51F4D" transform="translate(224,652)"/>
<path d="M0 0 C14.85 0 29.7 0 45 0 C45 7.26 45 14.52 45 22 C43.68 21.67 42.36 21.34 41 21 C41.66 20.01 42.32 19.02 43 18 C43.33 12.39 43.66 6.78 44 1 C23.21 1.495 23.21 1.495 2 2 C2 7.94 2 13.88 2 20 C12.23 20.33 22.46 20.66 33 21 C33 21.33 33 21.66 33 22 C22.11 22 11.22 22 0 22 C0 14.74 0 7.48 0 0 Z " fill="#F4DACC" transform="translate(494,495)"/>
<path d="M0 0 C7.26 0 14.52 0 22 0 C22 7.26 22 14.52 22 22 C14.74 22 7.48 22 0 22 C0 14.74 0 7.48 0 0 Z M2 2 C2 8.27 2 14.54 2 21 C6.4240625 21.0309375 6.4240625 21.0309375 10.9375 21.0625 C11.86812256 21.071604 12.79874512 21.08070801 13.75756836 21.09008789 C14.85016968 21.09383423 14.85016968 21.09383423 15.96484375 21.09765625 C16.7137085 21.10289307 17.46257324 21.10812988 18.23413086 21.11352539 C20.02667739 21.19341752 20.02667739 21.19341752 21 20 C21.08631874 18.65732587 21.10706473 17.31025678 21.09765625 15.96484375 C21.09515869 15.23644287 21.09266113 14.50804199 21.09008789 13.75756836 C21.08098389 12.8269458 21.07187988 11.89632324 21.0625 10.9375 C21.0315625 6.5134375 21.0315625 6.5134375 21 2 C14.73 2 8.46 2 2 2 Z " fill="#1F1601" transform="translate(247,203)"/>
<path d="M0 0 C7.59 0 15.18 0 23 0 C23 7.59 23 15.18 23 23 C15.41 23 7.82 23 0 23 C0 15.41 0 7.82 0 0 Z M1 1 C1 7.93 1 14.86 1 22 C7.6 22 14.2 22 21 22 C21 15.4 21 8.8 21 2 C16.81064913 0.95266228 13.02106965 0.88882807 8.75 0.9375 C4.91375 0.9684375 4.91375 0.9684375 1 1 Z " fill="#1E1405" transform="translate(224,405)"/>
<path d="M0 0 C0.33 0 0.66 0 1 0 C1 29.04 1 58.08 1 88 C-6.26 88 -13.52 88 -21 88 C-21 87.67 -21 87.34 -21 87 C-20.42967041 86.97494385 -19.85934082 86.9498877 -19.27172852 86.92407227 C-16.70173843 86.80843451 -14.13214473 86.68556376 -11.5625 86.5625 C-10.66466797 86.52318359 -9.76683594 86.48386719 -8.84179688 86.44335938 C-7.98779297 86.40146484 -7.13378906 86.35957031 -6.25390625 86.31640625 C-5.46314697 86.27974854 -4.6723877 86.24309082 -3.85766602 86.20532227 C-1.98598559 86.19436743 -1.98598559 86.19436743 -1 85 C-0.87490166 82.35348657 -0.81394005 79.73177781 -0.79467773 77.08374023 C-0.77982834 75.83994095 -0.77982834 75.83994095 -0.76467896 74.5710144 C-0.7329688 71.81690371 -0.70826912 69.06277574 -0.68359375 66.30859375 C-0.66303243 64.40429727 -0.64203618 62.50000545 -0.62062073 60.59571838 C-0.56531515 55.57337194 -0.51594344 50.55098373 -0.46777344 45.52856445 C-0.41762021 40.40767685 -0.36190197 35.2868502 -0.30664062 30.16601562 C-0.19895533 20.1107291 -0.09753355 10.05538975 0 0 Z " fill="#221004" transform="translate(246,227)"/>
<path d="M0 0 C0.91644287 0.00523682 1.83288574 0.01047363 2.77709961 0.01586914 C3.76645508 0.0190918 4.75581055 0.02231445 5.77514648 0.02563477 C6.81606445 0.03401367 7.85698242 0.04239258 8.92944336 0.05102539 C10.49662109 0.05779297 10.49662109 0.05779297 12.09545898 0.06469727 C14.68600996 0.07652627 17.27644895 0.0930085 19.86694336 0.11352539 C19.86694336 0.44352539 19.86694336 0.77352539 19.86694336 1.11352539 C12.93694336 1.11352539 6.00694336 1.11352539 -1.13305664 1.11352539 C-0.76469529 6.33452601 -0.76469529 6.33452601 -0.38476562 11.5546875 C-0.26150553 13.40543205 -0.19545364 15.25973061 -0.13305664 17.11352539 C-0.46305664 17.44352539 -0.79305664 17.77352539 -1.13305664 18.11352539 C-1.29112195 20.03831352 -1.38419164 21.96851749 -1.44946289 23.89868164 C-1.49135742 25.06850586 -1.53325195 26.23833008 -1.57641602 27.44360352 C-1.61573242 28.67530273 -1.65504883 29.90700195 -1.69555664 31.17602539 C-1.73874023 32.4115918 -1.78192383 33.6471582 -1.82641602 34.92016602 C-1.93289862 37.98449875 -2.03491088 41.04891612 -2.13305664 44.11352539 C-2.46305664 44.11352539 -2.79305664 44.11352539 -3.13305664 44.11352539 C-3.15770177 38.00797829 -3.17589035 31.90245988 -3.18798828 25.796875 C-3.19302952 23.71809383 -3.19986238 21.63931623 -3.20849609 19.56054688 C-3.22057086 16.57949953 -3.22628688 13.5984989 -3.23071289 10.61743164 C-3.23845482 9.2143148 -3.23845482 9.2143148 -3.24635315 7.78285217 C-3.24642868 6.92203537 -3.24650421 6.06121857 -3.24658203 5.17431641 C-3.24880264 4.41264664 -3.25102325 3.65097687 -3.25331116 2.8662262 C-3.07263194 0.23283972 -2.62492487 0.13970357 0 0 Z " fill="#7D2B3F" transform="translate(429.133056640625,629.886474609375)"/>
<path d="M0 0 C5.94 0 11.88 0 18 0 C18 13.86 18 27.72 18 42 C17.34 42 16.68 42 16 42 C16.00523682 40.82381104 16.01047363 39.64762207 16.01586914 38.43579102 C16.03391663 34.08797969 16.04543108 29.7401717 16.05493164 25.39233398 C16.05997244 23.5075627 16.06680498 21.62279535 16.07543945 19.73803711 C16.08751617 17.03498364 16.09323068 14.33198169 16.09765625 11.62890625 C16.10281754 10.78099014 16.10797882 9.93307404 16.11329651 9.0594635 C16.11349195 7.03928932 16.06206211 5.01922066 16 3 C14.00383446 1.00383446 10.18298037 1.59016573 7.4375 1.4375 C6.72658203 1.39431641 6.01566406 1.35113281 5.28320312 1.30664062 C3.52238088 1.20028223 1.7612168 1.09961154 0 1 C0 0.67 0 0.34 0 0 Z " fill="#37251A" transform="translate(341,450)"/>
<path d="M0 0 C0.33 0 0.66 0 1 0 C1 7.26 1 14.52 1 22 C8.59 22 16.18 22 24 22 C23.67 22.99 23.34 23.98 23 25 C22.67 24.67 22.34 24.34 22 24 C19.38144517 23.84614141 16.80742237 23.76833716 14.1875 23.75 C13.46240234 23.729375 12.73730469 23.70875 11.99023438 23.6875 C8.62634494 23.66287867 6.40218198 23.75731476 3.48828125 25.515625 C2.99714844 26.00546875 2.50601563 26.4953125 2 27 C0.68 25.68 -0.64 24.36 -2 23 C-1.505 21.515 -1.505 21.515 -1 20 C-0.8535286 18.44733347 -0.75305926 16.89004338 -0.68359375 15.33203125 C-0.64169922 14.43935547 -0.59980469 13.54667969 -0.55664062 12.62695312 C-0.51732422 11.69818359 -0.47800781 10.76941406 -0.4375 9.8125 C-0.37272461 8.40194336 -0.37272461 8.40194336 -0.30664062 6.96289062 C-0.20061335 4.64207146 -0.09854971 2.32114675 0 0 Z " fill="#F6DBCA" transform="translate(538,203)"/>
<path d="M0 0 C7.59 0 15.18 0 23 0 C23 7.59 23 15.18 23 23 C22.67 23 22.34 23 22 23 C22 15.74 22 8.48 22 1 C13.585 1.495 13.585 1.495 5 2 C5 2.66 5 3.32 5 4 C4.01 4.33 3.02 4.66 2 5 C1.01 4.01 0.02 3.02 -1 2 C-0.67 1.34 -0.34 0.68 0 0 Z " fill="#362619" transform="translate(314,427)"/>
<path d="M0 0 C0.66 0 1.32 0 2 0 C2 6.93 2 13.86 2 21 C8.6 21.33 15.2 21.66 22 22 C22 22.33 22 22.66 22 23 C14.74 23 7.48 23 0 23 C0 15.41 0 7.82 0 0 Z " fill="#361E11" transform="translate(359,562)"/>
<path d="M0 0 C7.59 0 15.18 0 23 0 C22.67 0.66 22.34 1.32 22 2 C20.08574219 1.98259766 20.08574219 1.98259766 18.1328125 1.96484375 C16.46354313 1.95546583 14.79427217 1.94636563 13.125 1.9375 C12.28324219 1.92912109 11.44148438 1.92074219 10.57421875 1.91210938 C9.76855469 1.90888672 8.96289062 1.90566406 8.1328125 1.90234375 C7.38918457 1.89710693 6.64555664 1.89187012 5.87939453 1.88647461 C3.90867432 1.88213364 3.90867432 1.88213364 2 3 C2 9.27 2 15.54 2 22 C1.34 22.33 0.68 22.66 0 23 C0 15.41 0 7.82 0 0 Z " fill="#361E12" transform="translate(269,405)"/>
<path d="M0 0 C7.59 0 15.18 0 23 0 C23 7.26 23 14.52 23 22 C22.01 21.01 21.02 20.02 20 19 C20.33 18.34 20.66 17.68 21 17 C21.23240505 14.28573859 21.41908802 11.59366233 21.5625 8.875 C21.7790625 4.976875 21.7790625 4.976875 22 1 C14.74 1 7.48 1 0 1 C0 0.67 0 0.34 0 0 Z " fill="#36251A" transform="translate(359,495)"/>
<path d="M0 0 C1.32 0.33 2.64 0.66 4 1 C3.34 1.66 2.68 2.32 2 3 C1.75393985 6.00886724 1.62619218 8.93217752 1.5859375 11.9453125 C1.56657135 12.8303244 1.5472052 13.7153363 1.5272522 14.62716675 C1.46737277 17.45967916 1.42103787 20.29223203 1.375 23.125 C1.33682789 25.04298668 1.29777662 26.96095607 1.2578125 28.87890625 C1.16166445 33.58579748 1.07766458 38.29276896 1 43 C0.67 43 0.34 43 0 43 C0 28.81 0 14.62 0 0 Z " fill="#F2CCB2" transform="translate(292,158)"/>
<path d="M0 0 C2.475 0.495 2.475 0.495 5 1 C4 4 4 4 2 5 C1.91902676 7.27024968 1.86082296 9.54132075 1.8125 11.8125 C1.77769531 13.07707031 1.74289062 14.34164062 1.70703125 15.64453125 C1.69172579 18.96596445 1.69172579 18.96596445 3.51171875 20.94921875 C4.00285156 21.29597656 4.49398438 21.64273438 5 22 C3.35 22 1.7 22 0 22 C0 14.74 0 7.48 0 0 Z " fill="#351E0F" transform="translate(337,540)"/>
<path d="M0 0 C0.33 0 0.66 0 1 0 C1.33 4.95 1.66 9.9 2 15 C3.12019531 14.9278125 4.24039062 14.855625 5.39453125 14.78125 C6.86718434 14.68745044 8.33984077 14.59370317 9.8125 14.5 C10.91948242 14.42845703 10.91948242 14.42845703 12.04882812 14.35546875 C15.03824588 14.16609387 18.00374574 14 21 14 C21 14.66 21 15.32 21 16 C14.07 16 7.14 16 0 16 C0 10.72 0 5.44 0 0 Z " fill="#331E12" transform="translate(382,591)"/>
<path d="M0 0 C1.65 0 3.3 0 5 0 C4.50959229 0.5465625 4.01918457 1.093125 3.51391602 1.65625 C1.65482914 4.53437192 1.67658609 6.10221188 1.77734375 9.5 C1.79603516 10.551875 1.81472656 11.60375 1.83398438 12.6875 C1.86814453 13.780625 1.90230469 14.87375 1.9375 16 C1.99753668 18.16642996 2.04868383 20.33312921 2.08984375 22.5 C2.11941162 23.4590625 2.14897949 24.418125 2.17944336 25.40625 C2 28 2 28 0 32 C0 21.44 0 10.88 0 0 Z " fill="#D9A185" transform="translate(427,315)"/>
<path d="M0 0 C1.65 0 3.3 0 5 0 C5 7.26 5 14.52 5 22 C3.68 21.67 2.36 21.34 1 21 C1.66 20.01 2.32 19.02 3 18 C3.3626117 16.07255631 3.3626117 16.07255631 3.4140625 13.98828125 C3.45273437 13.23095703 3.49140625 12.47363281 3.53125 11.69335938 C3.5621875 10.90767578 3.593125 10.12199219 3.625 9.3125 C3.66367187 8.51521484 3.70234375 7.71792969 3.7421875 6.89648438 C3.83632494 4.93136525 3.91924632 2.9657146 4 1 C2.68 0.67 1.36 0.34 0 0 Z " fill="#F3DACE" transform="translate(422,495)"/>
<path d="M0 0 C2.475 0.495 2.475 0.495 5 1 C4.67 1.99 4.34 2.98 4 4 C3.01 4.33 2.02 4.66 1 5 C0.67 3.35 0.34 1.7 0 0 Z " fill="#2E2017" transform="translate(337,540)"/>
</svg>
